<svg width="425" height="534" fill="none" xmlns="http://www.w3.org/2000/svg"><g opacity=".15"><path d="M109.454 11.45v45.62l-7.444.094c-4.135.047-28.719 0-54.727-.094L.092 56.929v59.304l23.113.188c21.965.189 23.251.236 26.743 1.223 5.79 1.646 9.236 3.574 12.913 7.337 2.389 2.445 3.721 4.28 4.916 6.866 3.355 7.196 3.079-4.421 3.079 133.706 0 82.632-.138 125.194-.46 126.887-1.102 5.973-5.1 11.804-9.741 14.203-4.411 2.304-6.295 2.445-28.857 2.445l-20.954-.047-5.192 32.028C2.803 458.658.368 473.519.23 474.131L0 475.165h39.472c21.734 0 46.364.141 54.727.33l15.255.282v57.307h54.222v-56.649l11.81.282c6.479.188 16.174.33 21.596.33h9.788v56.037h54.222v-14.069c.046-27.653.367-42.956.597-43.238.046-.047 3.4-.282 7.444-.612 56.795-4.044 93.601-15.567 118.828-37.106 20.77-17.73 32.533-43.08 36.301-78.117.781-7.242.827-27.559.046-33.861-3.17-25.867-12.82-45.008-29.684-58.976-11.625-9.641-26.054-16.648-44.158-21.54l-4.09-1.128 3.492-1.928c15.072-8.325 27.203-20.647 34.325-34.897 6.388-12.839 9.236-26.054 9.236-43.032 0-13.968-1.47-24.926-4.778-35.225-4.274-13.357-9.972-22.951-19.529-32.921-18.059-18.86-45.583-30.617-85.974-36.778-4.503-.705-20.172-2.586-21.459-2.586-.46 0-.597-9.453-.597-45.62V.563H206.87v54.156h-11.58c-6.387 0-16.128.141-21.597.33l-10.017.282V.562h-54.222V11.45zm113.958 109.768c19.116 2.258 30.649 5.268 41.448 10.864 17.231 8.889 25.87 22.151 26.835 41.152 1.148 22.668-10.293 39.034-34.05 48.581-12.452 4.986-29.684 8.137-51.005 9.265-9.466.518-38.874.612-40.528.188l-1.057-.282V120.607l3.584-.188c1.93-.094 13.693-.141 26.054-.094 16.864.094 24.078.329 28.719.893zm-5.514 165.828c31.155 1.317 52.659 5.737 69.064 14.25 12.866 6.678 21.045 14.72 25.778 25.349 6.249 14.015 5.652 32.686-1.332 45.29-9.374 16.789-29.225 27.794-60.196 33.391-18.702 3.386-45.996 4.938-73.061 4.233l-13.096-.33V287.046l11.395-.141c6.25-.047 15.578-.141 20.77-.235 5.193-.047 14.475.141 20.678.376z" fill="#576578"/><path d="M109.454 11.45v45.62l-7.444.094c-4.135.047-28.719 0-54.727-.094L.092 56.929v59.304l23.113.188c21.965.189 23.251.236 26.743 1.223 5.79 1.646 9.236 3.574 12.913 7.337 2.389 2.445 3.721 4.28 4.916 6.866 3.355 7.196 3.079-4.421 3.079 133.706 0 82.632-.138 125.194-.46 126.887-1.102 5.973-5.1 11.804-9.741 14.203-4.411 2.304-6.295 2.445-28.857 2.445l-20.954-.047-5.192 32.028C2.803 458.658.368 473.519.23 474.131L0 475.165h39.472c21.734 0 46.364.141 54.727.33l15.255.282v57.307h54.222v-56.649l11.81.282c6.479.188 16.174.33 21.596.33h9.788v56.037h54.222v-14.069c.046-27.653.367-42.956.597-43.238.046-.047 3.4-.282 7.444-.612 56.795-4.044 93.601-15.567 118.828-37.106 20.77-17.73 32.533-43.08 36.301-78.117.781-7.242.827-27.559.046-33.861-3.17-25.867-12.82-45.008-29.684-58.976-11.625-9.641-26.054-16.648-44.158-21.54l-4.09-1.128 3.492-1.928c15.072-8.325 27.203-20.647 34.325-34.897 6.388-12.839 9.236-26.054 9.236-43.032 0-13.968-1.47-24.926-4.778-35.225-4.274-13.357-9.972-22.951-19.529-32.921-18.059-18.86-45.583-30.617-85.974-36.778-4.503-.705-20.172-2.586-21.459-2.586-.46 0-.597-9.453-.597-45.62V.563H206.87v54.156h-11.58c-6.387 0-16.128.141-21.597.33l-10.017.282V.562h-54.222V11.45zm113.958 109.768c19.116 2.258 30.649 5.268 41.448 10.864 17.231 8.889 25.87 22.151 26.835 41.152 1.148 22.668-10.293 39.034-34.05 48.581-12.452 4.986-29.684 8.137-51.005 9.265-9.466.518-38.874.612-40.528.188l-1.057-.282V120.607l3.584-.188c1.93-.094 13.693-.141 26.054-.094 16.864.094 24.078.329 28.719.893zm-5.514 165.828c31.155 1.317 52.659 5.737 69.064 14.25 12.866 6.678 21.045 14.72 25.778 25.349 6.249 14.015 5.652 32.686-1.332 45.29-9.374 16.789-29.225 27.794-60.196 33.391-18.702 3.386-45.996 4.938-73.061 4.233l-13.096-.33V287.046l11.395-.141c6.25-.047 15.578-.141 20.77-.235 5.193-.047 14.475.141 20.678.376z" fill="url(#paint0_linear)" fill-opacity=".6"/></g><defs><linearGradient id="paint0_linear" x1="211.582" y1="724.564" x2="211.582" y2="-190.285" gradientUnits="userSpaceOnUse"><stop stop-color="#fff"/><stop offset=".488" stop-color="#fff" stop-opacity=".3"/><stop offset="1" stop-color="#fff" stop-opacity="0"/></linearGradient></defs></svg>