<svg width="35" height="71" fill="none" xmlns="http://www.w3.org/2000/svg"><path d="M34.466 70.107c-2.459-.59-5.256-1.603-7.969-2.616.763-1.097.763-3.122 0-4.894-.593-1.434-1.865-2.868-2.882-3.29-.509 1.265-.763 3.375 0 5.231.424 1.013 1.102 1.94 1.78 2.531-2.204-.844-4.323-2.11-6.358-3.543.933-.929 1.356-2.785 1.102-4.641-.254-1.603-1.102-3.29-2.034-3.965-.848 1.096-1.526 3.037-1.272 5.062.17.928.424 1.772.763 2.447-1.78-1.519-3.391-3.29-4.832-5.232 1.102-.59 2.12-2.278 2.289-4.218.17-1.603-.255-3.46-.933-4.388-1.017.76-2.204 2.532-2.458 4.557-.085 1.012 0 1.94.254 2.784-1.271-1.94-2.458-4.05-3.39-6.244 1.27-.253 2.627-1.603 3.22-3.459.51-1.519.594-3.46.085-4.556-1.186.506-2.797 1.772-3.475 3.712-.34.928-.509 2.025-.424 2.869-.763-2.11-1.441-4.387-1.865-6.75 1.271-.084 2.713-1.181 3.56-2.784.763-1.435 1.102-3.29.763-4.472-1.271.253-2.967 1.266-3.9 3.037-.338.675-.593 1.35-.677 2.025a42.053 42.053 0 0 1-.255-6.496c1.272.253 2.883-.591 4.07-2.025.932-1.182 1.61-3.038 1.44-4.22-1.271 0-3.136.676-4.408 2.195-.424.506-.678 1.096-.932 1.603.254-2.194.593-4.388 1.187-6.497l.508-.506c2.12-2.11 3.391-2.278 4.832-2.953-1.356.675-2.628 1.265-4.493 3.121l-.678.675c1.187.507 2.967.085 4.324-1.096 1.102-.928 2.034-2.532 2.034-3.628-1.187-.254-3.136 0-4.578 1.265-.678.59-1.186 1.266-1.61 2.025a34.639 34.639 0 0 1 2.289-5.822c1.017.675 2.797.675 4.323-.168 1.271-.675 2.458-1.857 2.797-2.87-1.102-.421-2.967-.59-4.577.254-.594.338-1.102.675-1.526 1.097a22.437 22.437 0 0 1 3.306-4.556c.17-.085.254-.17.424-.254 2.458-1.18 3.645-1.096 5.086-1.265-1.356.253-2.713.422-4.917 1.519-.254.168-.508.253-.763.421.933.676 2.628.76 4.154.17 1.272-.507 2.459-1.604 2.798-2.532-1.017-.506-2.883-.76-4.408-.084a3.967 3.967 0 0 0-.848.422c.763-.76 1.526-1.35 2.289-2.025l.17-.17c.762-.505 1.61-1.35 2.288-2.277 1.102-1.266 1.272-3.122 1.017-4.219-1.017.338-2.373 1.519-3.221 2.784-1.017 1.52-1.356 3.375-.848 4.388.17-.253.34-.675.594-.928 1.61-2.194 2.204-3.628 2.797-5.063-.508 1.435-.763 2.785-2.543 5.316-.085.169-.254.253-.34.422-1.61 1.18-3.05 2.615-4.322 4.218.339-.59.593-1.35.678-2.025.508-2.025 0-3.965-.678-4.893-.848.76-1.78 2.447-2.12 4.05-.424 1.94-.085 3.88.678 4.64a35.853 35.853 0 0 0-3.56 6.413c.254-.928.424-1.941.424-2.953 0-2.194-1.017-3.966-1.865-4.725-.678 1.012-1.187 3.037-1.187 4.725 0 2.109.848 3.965 1.95 4.556 0-.338-.085-.844-.085-1.181.085-3.122-.254-4.725-.678-6.413.424 1.688 1.102 3.038.932 6.497v.844c0-.085.085-.085.085-.17-.848 2.11-1.441 4.388-1.865 6.75-.085-.674-.17-1.35-.339-2.024-.593-2.194-2.035-3.713-3.137-4.303-.423 1.181-.423 3.375 0 5.146.594 2.11 1.865 3.713 3.052 3.966-.254 2.194-.254 4.472-.17 6.75-.254-.76-.508-1.603-.932-2.362C3.354 32.898 1.66 31.8.472 31.548c-.17 1.266.424 3.375 1.271 4.894 1.018 1.856 2.713 3.121 3.985 3.037 0 .338.085.59.085.928a39.33 39.33 0 0 0 1.186 5.653c-.508-.928-1.017-1.772-1.695-2.447C3.778 42.01 1.828 41.504.64 41.588c.17 1.266 1.187 3.207 2.374 4.388 1.441 1.519 3.306 2.194 4.493 1.772.848 2.447 1.95 4.725 3.137 6.834-.594-.844-1.611-1.688-2.628-2.363-1.865-1.096-3.9-1.096-5.002-.675.424 1.182 1.95 2.7 3.39 3.629 1.781 1.096 3.816 1.18 4.833.506-.34-.169-.763-.338-1.102-.59-2.543-1.688-4.154-2.194-5.765-2.785 1.611.422 3.137.506 5.934 2.447.255.169.51.337.763.506v-.084a38.533 38.533 0 0 0 4.493 5.737c-.678-.422-1.525-.76-2.373-1.012-2.035-.591-3.985 0-5.002.759.763 1.012 2.543 2.11 4.154 2.531 1.95.506 3.9.084 4.747-.844a28.193 28.193 0 0 0 5.256 3.713 10.566 10.566 0 0 0-2.289-.253c-2.119 0-3.814 1.18-4.662 2.109.932.76 2.967 1.35 4.578 1.266 2.034 0 3.814-1.013 4.408-2.11 2.458 1.181 5.086 2.278 9.58 3.544.169-.084.338-.253.508-.506zm-22.38-57.965c.763-2.869.847-4.472.932-6.16 0 1.688.255 3.123-.593 6.244-.085.17-.085.338-.17.422-.085.169-.17.253-.339.422 0-.169.085-.59.17-.928zm-2.12 4.64c.085-.084.17-.084.255-.168 2.458-1.519 3.73-1.434 5.256-1.688-1.441.338-2.798.675-5.002 1.94-.254.17-.509.338-.763.507.085-.253.17-.422.254-.59zM5.728 32.14c0-.085.085-.085.085-.17 1.78-2.615 3.051-3.121 4.323-4.05-1.272 1.013-2.374 1.857-3.984 4.22-.17.253-.34.421-.509.675.085-.17.085-.422.085-.675zm-.763 6.075c-1.441-2.87-2.543-4.135-3.73-5.485 1.187 1.266 2.458 2.11 3.984 5.316.085.169.17.422.254.59 0 .17.085.422.085.591-.085-.337-.424-.675-.593-1.012zm.593-8.1c-.085-.338-.254-.675-.339-1.013-.678-3.122-1.526-4.725-2.289-6.328.848 1.603 1.865 2.784 2.628 6.328 0 .169.085.253.085.422 0 .169-.085.337-.085.59zm.678 10.715c0-.084.085-.084.085-.169 1.272-2.953 2.459-3.712 3.56-4.893-1.017 1.265-2.034 2.362-3.22 4.978-.085.253-.255.506-.34.675-.085-.17-.085-.422-.085-.59zm.424 6.16c-2.12-2.363-3.475-3.291-4.917-4.22C3.27 43.614 4.71 44.12 7 46.82c.17.17.255.338.424.507.085.169.085.337.17.506-.34-.337-.678-.59-.933-.844zm1.865 2.193c0-.169.085-.337.085-.422.848-3.122 1.95-4.05 2.882-5.4-.847 1.435-1.695 2.7-2.543 5.485-.085.337-.17.59-.254.928-.085-.254-.17-.422-.17-.591zm4.408 8.015c-.084-.168-.254-.253-.339-.421v-.422c.085-3.29.848-4.472 1.442-6.075-.51 1.603-1.018 3.037-1.103 5.99v.928zm3.137 5.063c-2.882-.928-4.578-1.012-6.188-1.012 1.695 0 3.136-.338 6.358.759.17.084.339.084.508.169l.34.337c-.34-.169-.764-.169-1.018-.253zm2.543.844c0-.085 0-.169-.085-.253-.678-3.207-.254-4.557 0-6.244-.084 1.687-.254 3.206.34 6.075.084.253.084.506.17.76-.17-.17-.34-.254-.425-.338zm4.663 4.218c-3.052-.084-4.663.338-6.273.76 1.61-.506 2.967-1.181 6.357-1.097h.51l.508.253c-.34 0-.763.084-1.102.084zm2.797 0l-.254-.506c-1.441-2.869-1.272-4.303-1.526-5.99.34 1.687.593 3.206 1.78 5.821.17.338.255.591.424.844-.17-.084-.339-.169-.424-.169z" fill="#97A8BC"/></svg>