<svg width="12" height="69" fill="none" xmlns="http://www.w3.org/2000/svg"><path opacity=".5" d="M5.717 68.283a.4.4 0 0 0 .566 0l2.545-2.546a.4.4 0 0 0-.565-.565L6 67.434l-2.263-2.262a.4.4 0 0 0-.565.565l2.545 2.546zM5.6 0v1.133h.8V0h-.8zm0 3.4v2.267h.8V3.4h-.8zm0 4.533V10.2h.8V7.933h-.8zm0 4.534v2.266h.8v-2.266h-.8zM5.6 17v2.267h.8V17h-.8zm0 4.533V23.8h.8v-2.267h-.8zm0 4.534v2.266h.8v-2.266h-.8zm0 4.533v2.267h.8V30.6h-.8zm0 4.533V37.4h.8v-2.267h-.8zm0 4.534v2.266h.8v-2.266h-.8zm0 4.533v2.267h.8V44.2h-.8zm0 4.533V51h.8v-2.267h-.8zm0 4.534v2.266h.8v-2.266h-.8zm0 4.533v2.267h.8V57.8h-.8zm0 4.533V64.6h.8v-2.267h-.8zm0 4.534V68h.8v-1.133h-.8zm-.166 1.699a.8.8 0 0 0 1.132 0l5.09-5.092a.8.8 0 0 0-1.13-1.13L6 66.868l-4.525-4.526a.8.8 0 0 0-1.132 1.131l5.091 5.092zM5.2 0v1.133h1.6V0H5.2zm0 3.4v2.267h1.6V3.4H5.2zm0 4.533V10.2h1.6V7.933H5.2zm0 4.534v2.266h1.6v-2.266H5.2zM5.2 17v2.267h1.6V17H5.2zm0 4.533V23.8h1.6v-2.267H5.2zm0 4.534v2.266h1.6v-2.266H5.2zm0 4.533v2.267h1.6V30.6H5.2zm0 4.533V37.4h1.6v-2.267H5.2zm0 4.534v2.266h1.6v-2.266H5.2zm0 4.533v2.267h1.6V44.2H5.2zm0 4.533V51h1.6v-2.267H5.2zm0 4.534v2.266h1.6v-2.266H5.2zm0 4.533v2.267h1.6V57.8H5.2zm0 4.533V64.6h1.6v-2.267H5.2zm0 4.534V68h1.6v-1.133H5.2z" fill="#97A8BC"/></svg>