<svg width="389" height="442" fill="none" xmlns="http://www.w3.org/2000/svg"><path opacity=".5" d="M194.5 0l193.557 110.5v221L194.5 442 .943 331.5v-221L194.5 0z" fill="#fff"/><path opacity=".5" d="M191.927 69.472l1.715-.981.248.434.61-.349.61.349.248-.434 1.715.98-.248.435 1.715.98.249-.433 1.715.98-.248.434 1.715.981.248-.434 1.716.98-.248.435 1.715.98.248-.433 1.716.98-.249.434 1.716.981.248-.434 1.715.98-.248.435 1.716.98.248-.433 1.715.98-.248.434 1.715.981.249-.434 1.715.98-.248.435 1.715.98.248-.433 1.716.98-.248.434 1.715.981.248-.434 1.716.981-.249.434 1.716.98.248-.433 1.715.98-.248.435 1.716.98.248-.434 1.715.981-.248.434 1.715.98.248-.433 1.716.98-.248.435 1.715.98.248-.434 1.716.981-.249.434 1.716.981.248-.434 1.715.98-.248.435 1.716.98.248-.434 1.715.981-.248.434 1.715.981.249-.434 1.715.98-.248.435 1.715.981.248-.434 1.716.98-.248.434 1.715.981.248-.434 1.716.981-.249.434 1.716.981.248-.434 1.715.98-.248.434 1.716.981.248-.434 1.715.981-.248.434 1.715.981.249-.434 1.715.98-.248.434 1.715.981.248-.434 1.716.981-.248.434 1.715.981.248-.434 1.716.98-.249.435 1.716.98.248-.434 1.715.981-.248.434 1.716.981.248-.434 1.715.981-.248.434 1.715.98.249-.434 1.715.981-.248.434 1.715.981.248-.434 1.716.981-.248.434 1.715.98.248-.434 1.715.981-.248.434 1.716.981.248-.434 1.715.981-.248.434 1.716.981.248-.435 1.715.981-.248.434 1.715.981.248-.434 1.716.981-.248.434 1.715.981.248-.434 1.716.98-.249.434 1.716.981.248-.434 1.715.981-.248.434 1.716.981.248-.434 1.715.98-.248.434 1.715.981.249-.434 1.715.981-.248.434 1.715.981.248-.434 1.716.98-.248.435 1.715.98.248-.434 1.716.981-.249.434 1.716.981.248-.434 1.715.981-.248.434 1.716.98.248-.434 1.715.981-.248.434.606.347v.716h.5v2.013h-.5v2.013h.5v2.014h-.5v2.013h.5v2.013h-.5v2.013h.5v2.013h-.5v2.013h.5v2.013h-.5v2.014h.5v2.013h-.5v2.013h.5v2.013h-.5v2.013h.5v2.013h-.5v2.014h.5v2.013h-.5v2.013h.5v2.013h-.5v2.013h.5v2.013h-.5v2.014h.5v2.013h-.5v2.013h.5v2.013h-.5v2.013h.5v2.013h-.5v2.013h.5v2.014h-.5v2.013h.5v2.013h-.5v2.013h.5v2.013h-.5v2.013h.5v2.014h-.5v2.013h.5v2.013h-.5v2.013h.5v2.013h-.5v2.013h.5v2.014h-.5v2.013h.5v2.013h-.5v2.013h.5v2.013h-.5v2.013h.5v2.014h-.5v2.013h.5v2.013h-.5v2.013h.5v2.013h-.5v2.013h.5v2.013h-.5v2.014h.5v2.013h-.5v2.013h.5v2.013h-.5v2.013h.5v2.013h-.5v2.014h.5v2.013h-.5v2.013h.5v2.013h-.5v2.013h.5v2.013h-.5v2.013h.5v2.014h-.5v2.013h.5v2.013h-.5v2.013h.5v2.013h-.5v2.013h.5v2.014h-.5v2.013h.5v2.013h-.5v.716l-.606.347.248.434-1.715.981-.248-.434-1.716.98.248.434-1.715.981-.248-.434-1.716.981.249.434-1.716.981-.248-.434-1.715.98.248.435-1.716.98-.248-.434-1.715.981.248.434-1.715.981-.249-.434-1.715.981.248.434-1.715.98-.248-.434-1.716.981.248.434-1.715.981-.248-.434-1.716.981.249.434-1.716.98-.248-.434-1.715.981.248.434-1.716.981-.248-.434-1.715.981.248.434-1.715.981-.249-.435-1.715.981.248.434-1.715.981-.248-.434-1.716.981.248.434-1.715.981-.248-.434-1.716.98.249.434-1.716.981-.248-.434-1.715.981.248.434-1.716.981-.248-.434-1.715.98.248.434-1.715.981-.249-.434-1.715.981.248.434-1.715.981-.248-.434-1.716.98.248.435-1.715.98-.248-.434-1.715.981.248.434-1.716.981-.248-.434-1.715.981.248.434-1.715.98-.249-.434-1.715.981.248.434-1.715.981-.248-.434-1.716.981.248.434-1.715.98-.248-.434-1.716.981.249.434-1.716.981-.248-.434-1.715.981.248.434-1.716.98-.248-.434-1.715.981.248.434-1.715.981-.249-.434-1.715.981.248.434-1.715.981-.248-.434-1.716.98.248.434-1.715.981-.248-.434-1.716.981.249.434-1.716.981-.248-.434-1.715.98.248.434-1.716.981-.248-.434-1.715.981.248.434-1.715.981-.249-.434-1.715.98.248.434-1.715.981-.248-.434-1.716.981.248.434-1.715.981-.248-.434-1.716.981.249.434-1.716.98-.248-.434-1.715.981.248.434-1.716.981-.248-.434-1.715.981.248.434-1.715.98-.249-.434-1.715.981.248.434-1.715.981-.248-.434-1.716.981.248.434-1.715.98-.248-.434-1.715.981.248.434-1.716.981-.248-.434-1.715.981.248.434-1.716.981-.248-.434-1.715.98.248.434-1.715.981-.248-.434-.61.349-.609-.349-.249.434-1.715-.981.248-.434-1.715-.98-.248.434-1.716-.981.248-.434-1.715-.981-.248.434-1.716-.981.249-.434-1.716-.981-.248.435-1.715-.981.248-.434-1.716-.981-.248.434-1.715-.981.248-.434-1.715-.981-.249.434-1.715-.98.248-.434-1.715-.981-.248.434-1.716-.981.248-.434-1.715-.981-.248.434-1.716-.98.249-.434-1.716-.981-.248.434-1.715-.981.248-.434-1.716-.981-.248.434-1.715-.98.248-.435-1.715-.98-.249.434-1.715-.981.248-.434-1.715-.981-.248.434-1.716-.981.248-.434-1.715-.98-.248.434-1.716-.981.249-.434-1.716-.981-.248.434-1.715-.981.248-.434-1.716-.98-.248.434-1.715-.981.248-.434-1.715-.981-.249.434-1.715-.981.248-.434-1.715-.981-.248.435-1.716-.981.248-.434-1.715-.981-.248.434-1.716-.981.249-.434-1.716-.981-.248.434-1.715-.98.248-.434-1.716-.981-.248.434-1.715-.981.248-.434-1.715-.981-.249.434-1.715-.98.248-.434-1.715-.981-.248.434-1.716-.981.248-.434-1.715-.981-.248.434-1.716-.981.249-.434-1.716-.98-.248.434-1.715-.981.248-.434-1.716-.981-.248.434-1.715-.981.248-.434-1.715-.98-.249.434-1.715-.981.248-.434-1.715-.981-.248.434-1.716-.981.248-.434-1.715-.98-.248.434-1.715-.981.248-.434-1.716-.981-.248.434-1.715-.981.248-.434-1.716-.981-.248.434-1.715-.98.248-.434-1.715-.981-.248.434-1.716-.981.248-.434-1.715-.981-.248.434-1.716-.98.248-.434-1.715-.981-.248.434-1.716-.981.249-.434-1.716-.981-.248.434-1.715-.98.248-.434-1.716-.981-.248.434-1.715-.981.248-.434-1.715-.981-.248.434-1.716-.981.248-.434-1.715-.98-.248.434-1.716-.981.248-.434-1.715-.981-.248.434-1.715-.981.248-.434-1.716-.98-.248.434-1.715-.981.248-.434-.606-.347v-.716h-.5v-2.013h.5v-2.013h-.5v-2.014h.5v-2.013h-.5v-2.013h.5v-2.013h-.5v-2.013h.5v-2.013h-.5v-2.013h.5v-2.014h-.5v-2.013h.5v-2.013h-.5v-2.013h.5v-2.013h-.5v-2.013h.5v-2.014h-.5v-2.013h.5v-2.013h-.5v-2.013h.5v-2.013h-.5v-2.013h.5v-2.014h-.5v-2.013h.5v-2.013h-.5v-2.013h.5v-2.013h-.5v-2.013h.5v-2.013h-.5v-2.014h.5v-2.013h-.5v-2.013h.5v-2.013h-.5v-2.013h.5v-2.013h-.5v-2.014h.5v-2.013h-.5v-2.013h.5v-2.013h-.5v-2.013h.5v-2.013h-.5v-2.014h.5v-2.013h-.5v-2.013h.5v-2.013h-.5v-2.013h.5v-2.013h-.5v-2.014h.5v-2.013h-.5v-2.013h.5v-2.013h-.5v-2.013h.5v-2.013h-.5v-2.013h.5v-2.014h-.5v-2.013h.5v-2.013h-.5v-2.013h.5v-2.013h-.5v-2.013h.5v-2.014h-.5v-2.013h.5v-2.013h-.5v-2.013h.5v-2.013h-.5v-2.013h.5v-2.014h-.5v-2.013h.5v-2.013h-.5v-2.013h.5v-2.013h-.5v-2.013h.5v-2.013h-.5v-2.014h.5v-2.013h-.5v-2.013h.5v-.716l.606-.347-.248-.434 1.715-.981.248.434 1.716-.98-.249-.434 1.716-.981.248.434 1.715-.981-.248-.434 1.716-.981.248.434 1.715-.98-.248-.434 1.715-.981.249.434 1.715-.981-.248-.434 1.715-.981.248.434 1.716-.98-.248-.435 1.715-.98.248.434 1.716-.981-.249-.434 1.716-.981.248.434 1.715-.981-.248-.434 1.716-.98.248.434 1.715-.981-.248-.434 1.715-.981.249.434 1.715-.981-.248-.434 1.715-.98.248.434 1.716-.981-.248-.434 1.715-.981.248.434 1.716-.981-.249-.434 1.716-.981.248.435 1.715-.981-.248-.434 1.716-.981.248.434 1.715-.981-.248-.434 1.715-.981.249.434 1.715-.98-.248-.434 1.715-.981.248.434 1.716-.981-.248-.434 1.715-.981.248.434 1.716-.98-.249-.434 1.716-.981.248.434 1.715-.981-.248-.434 1.716-.981.248.434 1.715-.981-.248-.434 1.715-.98.249.434 1.715-.981-.248-.434 1.715-.981.248.434 1.716-.981-.248-.434 1.715-.98.248.434 1.716-.981-.249-.434 1.716-.981.248.434 1.715-.981-.248-.434 1.716-.98.248.434 1.715-.981-.248-.434 1.715-.981.249.434 1.715-.98-.248-.435 1.715-.98.248.433 1.716-.98-.248-.434 1.715-.981.248.434 1.716-.98-.249-.435 1.716-.98.248.433 1.715-.98-.248-.434 1.716-.981.248.434 1.715-.98-.248-.435 1.715-.98.249.433 1.715-.98-.248-.434 1.715-.981.248.434 1.716-.981-.248-.434 1.715-.98.248.433 1.716-.98-.249-.435 1.716-.98.248.434 1.715-.981-.248-.434 1.716-.98.248.433 1.715-.98-.248-.435 1.715-.98.249.434 1.715-.981-.248-.434 1.715-.981.248.434 1.716-.98-.248-.435 1.715-.98.248.434 1.715-.981-.248-.434 1.716-.981.248.434 1.715-.98-.248-.435 1.716-.98.248.433 1.715-.98-.248-.434z" fill="#E0E4EB" stroke="#97A8BC" stroke-dasharray="2 2"/><g clip-path="url(#clip0)"><path d="M194 165.811c-33.138 0-60.176 26.595-60.176 59.189 0 32.595 27.038 59.19 60.176 59.19 33.138 0 60.176-26.595 60.176-59.19 0-32.594-27.038-59.189-60.176-59.189zm45.997 23.676c7.749 9.568 12.365 21.568 12.53 34.703h-20.938c-.165-12.487-2.638-24.163-7.089-33.73h15.497v-.973zm-.494-.649h-15.827c-4.617-9.405-11.046-16.702-18.465-20.27 13.848 2.595 25.719 9.892 34.292 20.27zm-45.009-21.405c11.046.162 20.938 8.594 27.368 21.405h-27.368v-21.405zm-11.705 1.135c-7.419 3.568-13.849 10.865-18.465 20.27h-15.827c8.573-10.378 20.443-17.675 34.292-20.27zm9.892-1.135v21.405h-26.543c6.265-12.486 15.827-20.756 26.543-21.405zm-45.503 23.027H163.5c-4.287 9.567-6.924 21.081-7.089 33.73h-20.938c.165-12.649 4.616-24.325 11.705-33.73zm-11.705 35.351h20.938c.165 11.838 2.473 22.865 6.429 32.108h-16.816c-6.43-9.081-10.386-20.27-10.551-32.108zm11.705 33.73H163.5c4.616 10.216 11.376 18 19.289 21.892-14.508-2.757-27.038-10.703-35.611-21.892zm45.503 23.027c-11.211-.649-21.103-9.568-27.532-23.027h27.532v23.027zm0-29.676v5.027h-28.192c-3.957-9.081-6.43-20.108-6.43-32.108h25.39c.164-.648.329-1.135.824-1.621h-26.214c.165-12.649 2.803-24.325 7.254-33.73h27.533v6.324h1.648v-6.324h28.357c4.452 9.405 7.089 21.081 7.254 33.73h-25.059c-.165.648-.33 1.135-.66 1.621h25.554c-.164 11.838-2.473 22.865-6.429 32.108h-29.017v-5.027a3.422 3.422 0 0 1-1.813 0zm1.813 6.649h28.357c-6.429 13.784-16.816 22.865-28.357 23.027v-23.027zm10.717 21.892c7.748-3.892 14.508-11.676 19.289-21.892h16.322c-8.573 11.189-21.103 19.135-35.611 21.892zm36.765-23.514h-16.652c3.957-9.243 6.265-20.27 6.43-32.108h20.938c-.33 11.838-4.287 23.027-10.716 32.108z" fill="#97A8BC"/><path d="M178.997 236.028l-1.319 1.783h16.487l.989-1.783h-16.157zm4.452-6.811l-1.154 1.784h16.156l1.154-1.784h-16.156zm-2.308 3.405l-1.154 1.784h16.321l1.154-1.784h-16.321zm-8.903 13.622l-1.154 1.621h42.7l.659-1.621h-42.205zm-.33 3.405l.989 1.622h39.733l.659-1.622h-41.381zm4.781-10.216l-1.154 1.784h40.557l.659-1.784h-40.062zm8.903-13.622l-1.154 1.784h16.157l.989-1.784h-15.992zm-11.211 17.027l-1.154 1.622h41.711l.659-1.622h-41.216zm20.114-30.648l-.99 1.783h15.663l1.154-1.783h-15.827zm-20.938-10.054l-.66 1.621h42.7l1.154-1.621h-43.194zm-1.319 3.405l-.66 1.622h41.876l1.154-1.622h-42.37zm15.497 16.865l-.989 1.784h15.992l1.154-1.784h-16.157zm-12.859-23.676l-.66 1.622h41.711l-.989-1.622h-40.062zM190.043 219l-1.154 1.784h15.992l1.154-1.784h-15.992zm2.308-3.405l-1.154 1.784h15.827l1.154-1.784h-15.827zm-21.597-6.811l-.494 1.784h41.051l1.154-1.784h-41.711z" fill="#EA252C"/></g><defs><clipPath id="clip0"><path fill="#fff" transform="translate(133 165)" d="M0 0h122v120H0z"/></clipPath></defs></svg>