<svg width="543" height="381" xmlns="http://www.w3.org/2000/svg"><g fill="none" fill-rule="evenodd"><path fill="#E8272E" fill-rule="nonzero" d="M303.89 216.945l-.912 1.239h11.398l.683-1.239zm3.077-4.73l-.798 1.239h11.17l.798-1.239zm-1.596 2.365l-.798 1.239h11.284l.798-1.239zm-6.155 9.461l-.798 1.126h29.52l.456-1.126zm-.228 2.365l.684 1.126h27.468l.456-1.126zm3.306-7.095l-.798 1.239h28.038l.456-1.239zm6.155-9.461l-.798 1.239h11.169l.684-1.239zm-7.75 11.826l-.798 1.126h28.836l.456-1.126zm13.904-21.286l-.683 1.239h10.828l.798-1.239zm-14.474-6.983l-.456 1.126h29.52l.797-1.126zm-.913 2.365l-.455 1.126h28.949l.798-1.126zm10.714 11.714l-.684 1.238h11.056l.798-1.238zm-8.89-16.444l-.456 1.126h28.836l-.683-1.126zm10.486 14.078l-.798 1.239h11.056l.798-1.239zm1.596-2.365l-.798 1.239h10.942l.797-1.239zm-14.932-4.73l-.342 1.239h28.381l.798-1.239z"/><path fill="#7086A2" fill-rule="nonzero" d="M258.401 293.273l-.506-.713 26.35-36.156.778.321zm-82.372 5.841l-.46-.683 3.167-2.14.459.683-3.166 2.14zm5.459-3.677l-.46-.683 2.731-1.837.459.683-2.73 1.837zm5.46-3.675l-.46-.683 2.729-1.838.46.683-2.729 1.838zm5.46-3.677l-.459-.683 2.73-1.838.46.683-2.731 1.838zm5.46-3.677l-.46-.683 2.73-1.838.46.683-2.73 1.838zm5.459-3.677l-.46-.683 2.73-1.838.46.683-2.73 1.838zm5.46-3.676l-.46-.684 2.729-1.838.46.684-2.729 1.838zm5.46-3.676l-.46-.684 2.73-1.838.459.683-2.729 1.839zm5.459-3.677l-.46-.684 2.73-1.838.46.683-2.73 1.839zm5.461-3.677l-.46-.684 2.729-1.838.46.683-2.729 1.839zm5.459-3.677l-.46-.683 2.73-1.838.46.683-2.73 1.838zm5.459-3.677l-.46-.683 2.73-1.838.459.683-2.729 1.838zm5.461-3.676l-.46-.683 2.729-1.838.46.683-2.729 1.838zm5.459-3.677l-.46-.683 2.729-1.838.46.683-2.729 1.838zm5.459-3.677l-.459-.683 2.729-1.837.46.683-2.73 1.837zm5.461-3.676l-.46-.683 2.73-1.838.459.683-2.729 1.838zm5.459-3.677l-.46-.683 2.955-1.991.234.835-2.729 1.839zM87.826 303.209l-.58-.648 174.263-73.86.084.858zm263.002 4.037l-20.187-45.764.833-.149 20.106 45.581zm.661-59.159l-.583.582 95.161 95.465.583-.582zM165.106 119.981l-.412.713 102.035 58.95.412-.713zm117.631 42.927l-2.035-2.588.646-.509 2.227 2.834-.838.263zm-4.067-5.177l-2.035-2.589.646-.508 2.034 2.588-.645.509zm-4.07-5.176l-2.033-2.589.647-.508 2.034 2.589-.648.508zm-4.066-5.177l-2.034-2.588.645-.509 2.035 2.589-.646.508zm-4.067-5.176l-2.034-2.589.645-.509 2.035 2.589-.646.509zm-4.068-5.177l-2.034-2.589.646-.509 2.034 2.589-.646.509zm-4.069-5.177l-2.033-2.589.647-.508 2.034 2.588-.648.509zm-4.066-5.177l-2.034-2.588.646-.509 2.034 2.589-.646.508zm-4.068-5.176l-2.034-2.589.646-.509 2.034 2.589-.646.509zm-4.068-5.177l-2.034-2.589.648-.509 2.033 2.589-.647.509zm-4.066-5.177l-2.035-2.588.646-.509 2.034 2.588-.645.509zm-4.068-5.177l-2.035-2.589.647-.508 2.033 2.589-.645.508zm-4.068-5.177l-2.034-2.587.647-.509 2.033 2.589-.646.507zm-4.067-5.176l-2.034-2.589.646-.509 2.034 2.589-.646.509zm-4.068-5.177l-2.033-2.588.646-.509 2.034 2.588-.647.509zm-4.068-5.176l-2.033-2.589.646-.508 2.034 2.588-.647.509zm-4.067-5.178l-2.034-2.588.646-.51 2.035 2.59-.647.508zm-4.068-5.176l-2.033-2.59.646-.508 2.034 2.588-.647.51zm-4.068-5.177l-2.034-2.588.647-.509 2.034 2.588-.647.509zm-4.067-5.176l-2.033-2.589.646-.509 2.034 2.59-.647.508zm-4.067-5.177l-2.034-2.589.647-.508 2.033 2.588-.646.51zm-4.067-5.177l-2.034-2.589.647-.508 2.033 2.589-.646.508zm-4.068-5.176l-2.034-2.59.647-.508 2.033 2.589-.646.509zm-4.068-5.177l-2.034-2.589.646-.509 2.034 2.59-.646.508zm-4.068-5.177l-2.033-2.589.646-.509 2.034 2.59-.647.508zm-4.067-5.177l-2.034-2.589.646-.508 2.035 2.588-.647.51zm-4.068-5.177l-2.033-2.588.646-.509 2.034 2.589-.647.509zm-4.067-5.176l-2.033-2.59.646-.508 2.034 2.589-.647.509zm110.54 74.53l-.792.222 16.351 58.3.792-.222zm52.528 61.32l-.7-.47 1.19-3.07.767.297-1.257 3.243zm2.448-6.312l-.767-.298 1.19-3.069.767.297-1.19 3.07zm2.381-6.139l-.766-.297 1.19-3.07.767.298-1.191 3.069zm2.381-6.139l-.767-.297 1.191-3.069.766.298-1.19 3.068zm2.381-6.139l-.766-.298 1.19-3.069.767.297-1.191 3.07zm2.381-6.139l-.767-.298 1.191-3.069.766.297-1.19 3.07zm2.382-6.139l-.767-.298 1.19-3.069.767.298-1.19 3.069zm2.38-6.139l-.766-.297 1.19-3.069.767.298-1.191 3.068zm2.382-6.139l-.767-.297 1.19-3.07.767.298-1.19 3.069zm2.38-6.138l-.766-.298 1.126-2.903.807.194-1.167 3.007zm-1.164 71.509l-.395-.759L479.95 56.303l.456.701zm7.884 14.206v-.97l65.168-40.708.435.699zm3.051 11.526l-.139-.811 3.049-.556.14.81-3.05.557zm6.293-1.114l-.14-.811 3.243-.556.139.811-3.242.556zm6.485-1.113l-.14-.811 3.243-.556.14.811-3.243.556zm6.487-1.113l-.14-.811 3.242-.557.14.811-3.242.557zm6.486-1.114l-.14-.811 3.243-.556.14.81-3.243.557zm6.486-1.113l-.14-.811 3.243-.556.14.81-3.243.557zm6.486-1.114l-.14-.811 3.243-.556.139.811-3.242.556zm6.487-1.113l-.14-.81 3.243-.557.14.811-3.243.556zm6.486-1.113l-.14-.811 3.243-.557.14.811-3.243.557zm6.487-1.113l-.14-.811 3.242-.557.14.811-3.242.557zm6.486-1.114l-.14-.811 3.243-.556.14.811-3.243.556zm6.485-1.113l-.139-.811 3.242-.556.14.811-3.243.556zm6.487-1.114l-.14-.81 3.243-.557.14.811-3.243.556zm6.486-1.113l-.14-.81 3.243-.557.14.811-3.243.556zm6.486-1.113l-.139-.811 3.242-.557.14.811-3.243.557zm6.486-1.114l-.14-.811 3.243-.556.14.811-3.243.556zm6.486-1.113l-.14-.811 3.243-.556.14.811-3.243.556zm6.487-1.114l-.14-.81 3.243-.557.139.811-3.242.556zm6.486-1.113l-.14-.81 3.243-.557.14.811-3.243.556zm6.486-1.113l-.14-.811 3.242-.556.14.81-3.242.557zm6.486-1.113l-.14-.811 3.243-.556.14.81-3.243.557zm6.487-1.114l-.14-.811 3.243-.556.14.811-3.243.556zm-89.322 65.369l-49.639-14.374.463-.724 49.404 14.307zm-155.219-43.244L202.14 184.93l.206-.796 56.378 14.565zm-164.54 38.968l-.097-.817 1.09-.128.097.816-1.09.129zm4.357-.514l-.095-.817 3.268-.384.095.817-3.268.384zm6.537-.77l-.097-.816 3.269-.386.096.817-3.268.385zm6.535-.769l-.096-.817 3.268-.385.097.816-3.269.386zm6.537-.771l-.096-.816 3.267-.386.096.817-3.267.385zm6.535-.769l-.096-.818 3.268-.383.096.816-3.268.385zm6.536-.77l-.096-.817 3.268-.385.096.817-3.268.385zm6.536-.77l-.096-.816 3.268-.386.096.817-3.268.385zm6.536-.77l-.097-.817 3.269-.385.096.817-3.268.385zm6.535-.769l-.096-.817 3.268-.385.097.817-3.269.385zm6.536-.771l-.096-.816 3.268-.385.096.816-3.268.385zm6.536-.769l-.097-.817 3.269-.385.096.817-3.268.385zm6.536-.771l-.096-.816 3.268-.385.096.816-3.268.385zm6.536-.769l-.096-.817 3.268-.385.096.816-3.268.386zm6.536-.77l-.097-.816 3.269-.386.096.817-3.268.385zm6.535-.77l-.096-.817 3.268-.385.097.816-3.269.386zm6.536-.77l-.096-.817 3.268-.384.095.817-3.267.384zm6.536-.77l-.096-.816 3.268-.385.096.816-3.268.385zm6.536-.769l-.096-.817 3.267-.385.097.816-3.268.386zm6.535-.771l-.096-.816 3.268-.386.096.817-3.268.385zm6.537-.769l-.097-.816 3.269-.385.096.816-3.268.385zm6.535-.77l-.096-.817 3.268-.385.096.817-3.268.385zm6.536-.771l-.096-.816 3.268-.386.096.817-3.268.385zm6.536-.769l-.096-.817 3.268-.385.096.817-3.268.385zm6.535-.77l-.096-.816 3.268-.386.097.817-3.269.385zm6.536-.769l-.096-.818 3.268-.385.096.817-3.268.386zm62.058 46.637l-.31-1.937.813-.129.31 1.938zm10.059 63.98l-.502-3.199.813-.129.502 3.2-.813.128zm-1.005-6.398l-.502-3.2.812-.128.503 3.2-.813.128zm-1.007-6.398l-.502-3.199.812-.128.503 3.198-.813.129zm-1.006-6.399l-.502-3.198.812-.129.503 3.199-.813.128zm-1.005-6.397l-.503-3.199.813-.128.503 3.198-.813.129zm-1.006-6.398l-.503-3.2.813-.128.503 3.199-.813.129zm-1.006-6.398l-.503-3.2.813-.128.503 3.2-.813.128zm-1.006-6.398l-.503-3.2.813-.128.503 3.199-.813.129zm-1.006-6.398l-.503-3.199.813-.129.503 3.2-.813.128zm-1.006-6.398l-.503-3.2.813-.128.503 3.2-.813.128zm9.984 63.123l-.427-2.344.813-.126.426 2.343z"/><path d="M258.312 200.935l.005-.031c3.928-26.037 25.829-45.822 52.075-47.045l.027.579c-25.97 1.209-47.641 20.788-51.528 46.553l-.579-.056zm-.564 10.834l.578-.026c1.195 26.003 20.761 47.701 46.524 51.592l.122.018-.086.573-.122-.018c-26.036-3.933-45.809-25.861-47.016-52.139zm63.385-56.778l.087-.573.06.009c26.008 3.928 45.779 25.83 47.014 52.078l-.578.027c-1.222-25.972-20.787-47.644-46.522-51.531l-.061-.01zm-5.446 108.904c25.94-1.236 47.585-20.813 51.468-46.55l.014-.091.572.086-.014.092c-3.924 26.008-25.798 45.792-52.013 47.042l-.027-.579z" fill="#7086A2" fill-rule="nonzero"/><path d="M309.17 254.226c-16.045-1.388-30.249-11.307-37.071-25.885-2.836-6.062-4.274-12.502-4.274-19.143a45.21 45.21 0 0 1 2.701-15.399l.544.197a44.63 44.63 0 0 0-2.667 15.202c0 6.555 1.42 12.913 4.22 18.898 6.734 14.391 20.756 24.183 36.595 25.553l-.048.577zm11.785-.533l-.102-.571a44.737 44.737 0 0 0 11.084-3.53c15.615-7.316 25.704-23.195 25.704-40.454 0-6.556-1.42-12.914-4.219-18.898l.499-.3.026.054c2.835 6.061 4.273 12.502 4.273 19.143 0 17.483-10.22 33.569-26.037 40.979a45.247 45.247 0 0 1-11.228 3.577zm-44.538-70.047l-.475-.331a45.184 45.184 0 0 1 17.92-15.097c6.058-2.838 12.494-4.277 19.131-4.277 13.375 0 25.977 5.853 34.573 16.06l-.443.373c-8.485-10.075-20.926-15.853-34.13-15.853-6.552 0-12.906 1.421-18.886 4.222a44.591 44.591 0 0 0-17.69 14.903z" fill="#7086A2" fill-rule="nonzero"/><path d="M313.454 245.88l-.007-.58a35.829 35.829 0 0 0 11.406-1.999l.191.549a36.434 36.434 0 0 1-11.59 2.03zm-3.542-.133a36.721 36.721 0 0 1-11.41-2.872l.23-.532a36.188 36.188 0 0 0 11.23 2.826l-.05.578zm18.418-3.223l-.242-.527.242-.113a36.064 36.064 0 0 0 9.375-6.342l.396.424a36.646 36.646 0 0 1-9.526 6.444l-.245.114zm-33.011-1.206a36.5 36.5 0 0 1-9.263-7.255l.426-.392a35.93 35.93 0 0 0 9.116 7.138l-.279.509zm45.247-7.896l-.435-.383a36.087 36.087 0 0 0 6.149-9.817l.534.226a36.673 36.673 0 0 1-6.248 9.974zm-56.783-2.079a36.923 36.923 0 0 1-3.981-6.612 37.226 37.226 0 0 1-1.526-3.791l.548-.187a36.41 36.41 0 0 0 5.421 10.24l-.462.35zm64.25-11.225l-.553-.173a36.144 36.144 0 0 0 1.646-11.469l.579-.011a36.733 36.733 0 0 1-1.672 11.653zm-70.735-2.588a36.56 36.56 0 0 1-.807-11.745l.577.053a35.987 35.987 0 0 0 .794 11.561l-.564.131zm71.594-12.536a36.114 36.114 0 0 0-3.174-11.145l-.039-.082.525-.246.039.081a36.707 36.707 0 0 1 3.226 11.324l-.577.068zm-71.331-2.611l-.569-.11a36.859 36.859 0 0 1 4.034-11.059l.506.284a36.245 36.245 0 0 0-3.971 10.885zm66.484-11.698a35.874 35.874 0 0 0-7.437-8.879l.378-.44a36.403 36.403 0 0 1 7.556 9.023l-.497.296zm-60.667-2.147l-.475-.331a36.386 36.386 0 0 1 8.178-8.462l.346.465a35.82 35.82 0 0 0-8.049 8.328zm50.482-8.878a36.13 36.13 0 0 0-10.409-5.077l.168-.555a36.74 36.74 0 0 1 10.575 5.159l-.334.473zm-39.539-1.395l-.3-.497a37.632 37.632 0 0 1 3.447-1.841 36.933 36.933 0 0 1 7.464-2.568l.128.566a36.362 36.362 0 0 0-10.739 4.34zm25.746-4.53a36.104 36.104 0 0 0-11.572-.417l-.074-.576a36.724 36.724 0 0 1 11.76.424l-.114.569zm-6.999 65.415c-11.275 0-22.094-6.393-27.183-17.268-7.006-14.973-.532-32.859 14.431-39.869 7.25-3.396 15.385-3.764 22.911-1.037 7.525 2.727 13.538 8.224 16.933 15.478 3.394 7.253 3.761 15.395 1.036 22.925-2.726 7.53-8.219 13.548-15.468 16.944a29.786 29.786 0 0 1-12.66 2.827zm-.089-58.225c-4.002 0-8.067.855-11.925 2.664-14.096 6.604-20.194 23.451-13.595 37.556 6.6 14.104 23.438 20.206 37.532 13.603 14.096-6.604 20.195-23.451 13.595-37.557-4.794-10.243-14.987-16.266-25.607-16.266zm113.146 72.726a7.768 7.768 0 0 0 7.766-7.771c0-4.292-3.477-7.772-7.766-7.772a7.77 7.77 0 0 0-7.767 7.772 7.77 7.77 0 0 0 7.767 7.771zm-8.101 1.892l-.006-.005c-4.591-3.859-5.832-10.47-2.95-15.72l.116.063c-2.852 5.196-1.624 11.738 2.919 15.556l-.079.106zm2.037 1.397l.064-.116c5.193 2.858 11.733 1.631 15.552-2.918l.018-.021.101.085-.018.021c-3.859 4.598-10.468 5.838-15.717 2.949zm-3.497-19.077l-.101-.085.009-.011c3.854-4.591 10.459-5.835 15.705-2.955l-.064.116c-5.19-2.849-11.726-1.62-15.54 2.924l-.009.011zm20.51 14.003c2.843-5.193 1.612-11.73-2.926-15.544l-.017-.013.085-.101.017.014c4.586 3.854 5.829 10.46 2.957 15.708l-.116-.064z" fill="#7086A2" fill-rule="nonzero"/><path d="M425.247 256.165a10.337 10.337 0 0 1-8.447-5.898 10.22 10.22 0 0 1-.974-4.362 10.3 10.3 0 0 1 .616-3.508l.124.045a10.173 10.173 0 0 0-.608 3.464c0 1.494.323 2.942.962 4.306a10.202 10.202 0 0 0 8.338 5.822l-.011.131zm2.685-.121l-.023-.13a10.233 10.233 0 0 0 2.525-.804 10.216 10.216 0 0 0 5.857-9.218c0-1.494-.324-2.943-.962-4.306l.114-.068.005.012c.646 1.381.974 2.849.974 4.362a10.35 10.35 0 0 1-5.932 9.337 10.32 10.32 0 0 1-2.558.815zm-10.147-15.96l-.108-.076a10.287 10.287 0 0 1 4.083-3.439 10.197 10.197 0 0 1 4.359-.975c3.048 0 5.919 1.334 7.877 3.659l-.101.086a10.141 10.141 0 0 0-7.776-3.612c-1.493 0-2.941.323-4.303.962a10.15 10.15 0 0 0-4.031 3.395zm-209.8-49.547a8.135 8.135 0 0 0 0-11.499 8.122 8.122 0 0 0-11.492.001 8.134 8.134 0 0 0 0 11.498 8.121 8.121 0 0 0 11.492 0zM176.212 26.554a8.134 8.134 0 0 0 1.028-11.452 8.122 8.122 0 0 0-11.445-1.029 8.135 8.135 0 0 0-1.028 11.453 8.122 8.122 0 0 0 11.445 1.028zm168.503 52.051l.002-.01c1.414-9.376 9.3-16.5 18.751-16.94l.01.208c-9.352.436-17.155 7.485-18.555 16.763l-.208-.02zm-.203 3.901l.208-.01c.43 9.364 7.475 17.176 16.752 18.578l.044.007-.032.206-.043-.006c-9.375-1.417-16.495-9.313-16.929-18.775zm22.824-20.444l.031-.207.022.003c9.365 1.415 16.484 9.301 16.929 18.753l-.208.01c-.441-9.352-7.485-17.156-16.751-18.556l-.023-.003zm-1.962 39.213c9.34-.446 17.135-7.495 18.532-16.762l.005-.033.207.031-.005.033c-1.413 9.365-9.289 16.489-18.729 16.939l-.01-.208z" fill="#7086A2" fill-rule="nonzero"/><path d="M363.027 97.794a16.332 16.332 0 0 1-13.347-9.321 16.152 16.152 0 0 1-1.539-6.893c0-1.892.327-3.757.972-5.545l.196.071a16.07 16.07 0 0 0-.96 5.474c0 2.361.511 4.65 1.52 6.804a16.12 16.12 0 0 0 13.177 9.201l-.019.209zm4.244-.192l-.037-.206a16.09 16.09 0 0 0 3.992-1.271c5.622-2.634 9.255-8.351 9.255-14.566 0-2.361-.512-4.65-1.519-6.805l.179-.108.009.019a16.152 16.152 0 0 1 1.539 6.893c0 6.295-3.68 12.087-9.375 14.756a16.322 16.322 0 0 1-4.043 1.288zM351.234 72.38l-.171-.12a16.274 16.274 0 0 1 6.453-5.436 16.127 16.127 0 0 1 6.888-1.54c4.817 0 9.354 2.108 12.449 5.783l-.159.135a16.032 16.032 0 0 0-12.29-5.709c-2.36 0-4.647.512-6.8 1.52a16.058 16.058 0 0 0-6.37 5.367z" fill="#7086A2" fill-rule="nonzero"/><path d="M364.57 94.788l-.003-.209a12.87 12.87 0 0 0 4.107-.719l.068.197a13.05 13.05 0 0 1-4.172.731zm-1.275-.047c-1.417-.122-2.8-.47-4.108-1.034l.082-.192c1.288.556 2.649.898 4.044 1.018l-.018.208zm6.632-1.161l-.087-.189.087-.041a12.982 12.982 0 0 0 3.376-2.283l.142.152a13.211 13.211 0 0 1-3.429 2.321l-.089.04zm-11.886-.434a13.11 13.11 0 0 1-3.336-2.612l.154-.141a12.927 12.927 0 0 0 3.282 2.57l-.1.183zm16.292-2.843l-.157-.137a13.033 13.033 0 0 0 2.215-3.535l.192.081a13.245 13.245 0 0 1-2.25 3.591zm-20.446-.749a13.249 13.249 0 0 1-1.433-2.381 12.999 12.999 0 0 1-.55-1.364l.197-.068a13.286 13.286 0 0 0 1.953 3.688l-.167.125zm23.134-4.042l-.199-.062a13.017 13.017 0 0 0 .592-4.13l.208-.004a13.19 13.19 0 0 1-.601 4.196zm-25.469-.931a13.145 13.145 0 0 1-.291-4.23l.208.02a12.952 12.952 0 0 0 .285 4.163l-.202.047zm25.778-4.515a13.012 13.012 0 0 0-1.142-4.012l-.014-.03.188-.089.014.03a13.2 13.2 0 0 1 1.162 4.078l-.208.023zm-25.684-.94l-.205-.04a13.29 13.29 0 0 1 1.453-3.981l.181.102a13.091 13.091 0 0 0-1.429 3.92zm23.939-4.212a12.923 12.923 0 0 0-2.678-3.197l.136-.158a13.117 13.117 0 0 1 2.721 3.25l-.179.105zm-21.844-.773l-.171-.119a13.116 13.116 0 0 1 2.945-3.047l.125.167a12.902 12.902 0 0 0-2.899 3zm18.176-3.197a13.017 13.017 0 0 0-3.747-1.828l.06-.2a13.25 13.25 0 0 1 3.808 1.857l-.121.171zm-14.236-.502l-.107-.178a13.295 13.295 0 0 1 3.928-1.588l.046.203a13.125 13.125 0 0 0-3.867 1.563zm9.27-1.63a12.973 12.973 0 0 0-4.166-.15l-.027-.208a13.228 13.228 0 0 1 4.234.153l-.041.204zm-2.519 23.553c-4.06 0-7.956-2.301-9.789-6.218-2.523-5.392-.191-11.831 5.197-14.356a10.71 10.71 0 0 1 8.249-.373 10.722 10.722 0 0 1 6.097 5.572 10.73 10.73 0 0 1 .373 8.255 10.723 10.723 0 0 1-5.569 6.101 10.705 10.705 0 0 1-4.558 1.019zM364.4 71.4a10.08 10.08 0 0 0-4.294.96c-5.076 2.377-7.272 8.444-4.896 13.522 2.377 5.079 8.439 7.276 13.514 4.898 5.076-2.378 7.271-8.444 4.896-13.523-1.726-3.689-5.397-5.857-9.22-5.857zm-50.215 280.456l.001-.011c1.414-9.376 9.301-16.5 18.751-16.94l.01.209c-9.352.435-17.155 7.485-18.554 16.762l-.208-.02zm-.204 3.901l.209-.01c.43 9.363 7.475 17.176 16.751 18.577l.044.006-.031.207-.044-.007c-9.374-1.416-16.494-9.311-16.929-18.773zm22.824-20.444l.031-.207.022.004c9.364 1.414 16.483 9.3 16.928 18.752l-.208.01c-.44-9.352-7.485-17.156-16.751-18.556l-.022-.003zm-1.961 39.213c9.34-.445 17.134-7.495 18.532-16.762l.005-.033.206.032-.005.033c-1.412 9.365-9.289 16.488-18.728 16.938l-.01-.208z" fill="#7086A2" fill-rule="nonzero"/><path d="M332.497 371.044a16.331 16.331 0 0 1-13.348-9.32 16.156 16.156 0 0 1-1.539-6.893c0-1.893.327-3.758.972-5.545l.197.071a16.069 16.069 0 0 0-.96 5.474c0 2.36.511 4.65 1.519 6.804a16.124 16.124 0 0 0 13.178 9.201l-.019.208zm4.244-.192l-.037-.205a16.167 16.167 0 0 0 3.991-1.271c5.623-2.634 9.255-8.352 9.255-14.567 0-2.361-.51-4.65-1.519-6.805l.179-.108.009.019a16.153 16.153 0 0 1 1.54 6.893c0 6.296-3.68 12.087-9.376 14.756a16.26 16.26 0 0 1-4.042 1.288zm-16.037-25.222l-.171-.119a16.274 16.274 0 0 1 6.452-5.436 16.121 16.121 0 0 1 6.889-1.54c4.816 0 9.354 2.107 12.449 5.782l-.16.135a16.029 16.029 0 0 0-12.289-5.709c-2.359 0-4.647.511-6.801 1.52a16.075 16.075 0 0 0-6.369 5.367z" fill="#7086A2" fill-rule="nonzero"/><path d="M334.039 368.039l-.002-.209a12.898 12.898 0 0 0 4.106-.72l.069.198c-1.346.469-2.75.715-4.173.731zm-1.275-.048a13.239 13.239 0 0 1-4.108-1.034l.082-.192a13.04 13.04 0 0 0 4.044 1.019l-.018.207zm6.632-1.161l-.087-.189.087-.04a12.954 12.954 0 0 0 3.375-2.284l.143.153a13.213 13.213 0 0 1-3.43 2.32l-.088.04zm-11.886-.433a13.19 13.19 0 0 1-3.336-2.612l.154-.142a12.958 12.958 0 0 0 3.283 2.571l-.101.183zm16.292-2.844l-.156-.137a13 13 0 0 0 2.214-3.535l.192.082a13.216 13.216 0 0 1-2.25 3.59zm-20.446-.748a13.299 13.299 0 0 1-1.983-3.745l.198-.068a13.066 13.066 0 0 0 1.952 3.688l-.167.125zm23.134-4.041l-.199-.063c.395-1.263.595-2.571.595-3.889l-.002-.241.209-.004.002.245a13.21 13.21 0 0 1-.605 3.952zm-25.469-.933a13.142 13.142 0 0 1-.291-4.229l.208.019a12.891 12.891 0 0 0 .287 4.162l-.204.048zm25.779-4.514a12.963 12.963 0 0 0-1.144-4.013l-.014-.03.189-.089.014.03a13.179 13.179 0 0 1 1.161 4.078l-.206.024zm-25.685-.94l-.205-.04a13.254 13.254 0 0 1 1.453-3.981l.182.102a13.079 13.079 0 0 0-1.43 3.919zm23.939-4.212a12.875 12.875 0 0 0-2.677-3.197l.135-.158a13.074 13.074 0 0 1 2.721 3.249l-.179.106zm-21.844-.773l-.171-.12a13.11 13.11 0 0 1 2.945-3.047l.125.167a12.924 12.924 0 0 0-2.899 3zm18.177-3.196a13.035 13.035 0 0 0-3.748-1.829l.06-.2a13.24 13.24 0 0 1 3.808 1.857l-.12.172zm-14.236-.503l-.108-.179a13.287 13.287 0 0 1 3.929-1.588l.046.203a13.101 13.101 0 0 0-3.867 1.564zm9.27-1.631a12.992 12.992 0 0 0-4.167-.15l-.026-.207a13.233 13.233 0 0 1 4.234.152l-.041.205zm-2.52 23.553c-4.06 0-7.955-2.301-9.788-6.218-2.523-5.391-.192-11.831 5.196-14.355a10.707 10.707 0 0 1 8.249-.374 10.727 10.727 0 0 1 6.098 5.573 10.728 10.728 0 0 1 .373 8.254 10.72 10.72 0 0 1-5.569 6.101 10.698 10.698 0 0 1-4.559 1.019zm-.032-20.964c-1.441 0-2.905.308-4.294.959-5.076 2.378-7.271 8.444-4.895 13.522 2.376 5.079 8.439 7.276 13.514 4.899 5.075-2.378 7.271-8.445 4.895-13.523-1.726-3.689-5.396-5.857-9.22-5.857zm17.384-32.897a4.672 4.672 0 0 1-4.72-4.625 4.673 4.673 0 0 1 4.623-4.723 4.673 4.673 0 0 1 4.72 4.625 4.673 4.673 0 0 1-4.623 4.723zM94.185 242.783a4.673 4.673 0 0 1-4.72-4.625 4.674 4.674 0 0 1 4.622-4.724 4.674 4.674 0 0 1 4.721 4.626 4.674 4.674 0 0 1-4.623 4.723zm335.447-90.159a4.674 4.674 0 0 1-4.721-4.625 4.673 4.673 0 1 1 9.344-.098 4.672 4.672 0 0 1-4.623 4.723zM174.675 304.237a4.67 4.67 0 0 1-4.72-4.625 4.673 4.673 0 1 1 9.343-.098 4.673 4.673 0 0 1-4.623 4.723zm108.434-201.769a4.673 4.673 0 0 1-4.721-4.625 4.673 4.673 0 1 1 9.344-.098 4.674 4.674 0 0 1-4.623 4.723z" fill="#7086A2" fill-rule="nonzero"/><path d="M305.518 376.298l-90.242-34.62-.093-.143-52.578-80.943.009-.17 5.01-96.409.107-.133 60.684-75.05.165-.044 93.179-25.024.159.061 90.083 34.56.093.143 52.578 80.944-.008.17-5.011 96.409-.107.132-60.685 75.05-.165.044-93.178 25.023zm-89.549-35.477l89.606 34.377 92.686-24.892 60.365-74.652 4.983-95.899-52.3-80.516-89.606-34.376-92.686 24.891-60.363 74.653-4.985 95.898 52.3 80.516z" fill="#7086A2" fill-rule="nonzero"/><path fill="#7086A2" fill-rule="nonzero" d="M346.525 364.419l29.261-34.722.401.339-29.483 34.983-.164-.049"/><path fill="#7086A2" fill-rule="nonzero" d="M248.448 271.002l.3.286 97.76 92.968 36.378-97.636.491.183-36.655 98.379-98.035-93.228"/><path fill="#7086A2" fill-rule="nonzero" d="M164.091 227.131l84.537 44.083 134.458-4.763 55.778-17.994-62.67 81.57-.415-.32 61.644-80.234-54.245 17.499-.037.002-134.633 4.768-.061-.031-82.872-43.215"/><path fill="#7086A2" fill-rule="nonzero" d="M458.933 276.013l-21.148-27.08 23.676-21.314.351.389-23.312 20.988 20.846 26.694zM321.484 64.198l-23.295 42.555.459.251 23.296-42.554zM165.023 227.993l-.38-.359 59.832-63.163h-56.336v-.524h57.555l-.42.443z"/><path d="M248.429 272.074l-23.636-107.969.035-.028 3.642-75.117 69.909 17.626.214-.167.045.175 113.303-8.065-5.303 65.702-.522-.042 5.254-65.094-112.597 8.015 19.808 76.081.266.048-70.418 88.835zm-22.947-107.275l23.224 106.084 69.188-87.284c-3.283-.597-24.751-4.511-46.02-8.63-35.994-6.97-44.386-9.259-46.392-10.17zm-.026-.548c3.123 2.058 56.537 12.302 92.558 18.837l-19.727-75.766-72.831 56.929zm3.506-74.627l-3.589 74.026 72.483-56.656-68.894-17.37z" fill="#7086A2" fill-rule="nonzero"/><path d="M383.265 267.309l-.34-.437-65.017-83.621 88.814-19.386-.091.402-23.366 103.042zm-64.433-83.723l64.167 82.527 23.032-101.56-87.199 19.033z" fill="#7086A2" fill-rule="nonzero"/><path d="M438.142 249.711l-31.976-85.316-107.849-57.293.246-.463 107.911 57.325 58.015 15.47-.102.271-26.245 70.006zm-31.341-85.117l31.341 83.624 25.652-68.427-56.993-15.197z" fill="#7086A2" fill-rule="nonzero"/><path fill="#7086A2" fill-rule="nonzero" d="M437.966 248.891l-39.66 101.775.488.191 39.66-101.776zm-115.275-65.472a4.323 4.323 0 0 1-4.321 4.324 4.322 4.322 0 0 1-4.32-4.324 4.321 4.321 0 1 1 8.641 0zm-93.286-19.21a4.322 4.322 0 0 1-8.642 0 4.322 4.322 0 0 1 8.642 0zm3.632-74.918a4.322 4.322 0 1 1-8.642 0 4.322 4.322 0 1 1 8.642 0zm69.723 17.58a4.322 4.322 0 0 1-8.642 0 4.322 4.322 0 1 1 8.642 0zm-48.729 164.607a4.322 4.322 0 0 1-4.321 4.324 4.322 4.322 0 0 1-4.32-4.324 4.323 4.323 0 0 1 4.32-4.324 4.323 4.323 0 0 1 4.321 4.324zm96.905 93.241a4.322 4.322 0 1 1-8.642 0 4.323 4.323 0 0 1 4.321-4.324 4.323 4.323 0 0 1 4.321 4.324zm36.517-98.007a4.323 4.323 0 0 1-4.322 4.324 4.323 4.323 0 0 1-4.321-4.324 4.323 4.323 0 0 1 4.321-4.324 4.323 4.323 0 0 1 4.322 4.324z"/><path d="M438.143 253.289a4.322 4.322 0 0 0 4.321-4.324 4.322 4.322 0 1 0-8.642 0 4.323 4.323 0 0 0 4.321 4.324zm-31.766-84.756a4.322 4.322 0 0 0 4.321-4.324 4.322 4.322 0 1 0-8.642 0 4.322 4.322 0 0 0 4.321 4.324zm9.6-69.722a4.323 4.323 0 0 1-4.32 4.324 4.324 4.324 0 0 1 0-8.648 4.322 4.322 0 0 1 4.32 4.324zm-89.925-34.499a4.322 4.322 0 0 1-4.32 4.324 4.323 4.323 0 0 1-4.321-4.324 4.32 4.32 0 0 1 8.641 0zM168.139 168.533a4.323 4.323 0 0 0 4.321-4.324 4.323 4.323 0 0 0-4.321-4.324 4.323 4.323 0 0 0-4.322 4.324 4.323 4.323 0 0 0 4.322 4.324zm1.016 59.28a4.323 4.323 0 0 1-4.322 4.324 4.323 4.323 0 0 1-4.321-4.324 4.323 4.323 0 0 1 4.321-4.324 4.324 4.324 0 0 1 4.322 4.324zm-6.018 36.959a4.322 4.322 0 0 0 4.321-4.324 4.322 4.322 0 1 0-8.642 0 4.323 4.323 0 0 0 4.321 4.324zm305.325-85.677a4.322 4.322 0 1 1-8.642 0 4.323 4.323 0 0 1 4.321-4.324 4.323 4.323 0 0 1 4.321 4.324zm-2.505 48.718a4.323 4.323 0 0 1-4.321 4.324 4.323 4.323 0 0 1-4.322-4.324 4.323 4.323 0 0 1 4.322-4.324 4.323 4.323 0 0 1 4.321 4.324zm-2.496 48.038a4.322 4.322 0 1 1-8.642 0 4.322 4.322 0 1 1 8.642 0zm-243.518 65.398a4.322 4.322 0 0 1-8.642 0 4.322 4.322 0 1 1 8.642 0zm89.924 34.499a4.322 4.322 0 1 1-8.642 0 4.322 4.322 0 0 1 8.642 0zm93.016-24.98a4.323 4.323 0 0 1-4.322 4.324 4.323 4.323 0 0 1-4.321-4.324 4.322 4.322 0 0 1 8.643 0zM.812 311.333l.005-.03c3.886-25.758 25.552-45.331 51.515-46.54l.027.573c-25.692 1.196-47.13 20.563-50.975 46.052l-.572-.055zm-.558 10.718l.572-.026c1.182 25.723 20.538 47.188 46.024 51.038l.12.018-.085.568-.12-.019C21.009 369.739 1.448 348.047.254 322.051zm62.704-56.167l.086-.567.06.009c25.727 3.886 45.286 25.553 46.508 51.518l-.573.027c-1.208-25.693-20.563-47.132-46.021-50.978l-.06-.009zM57.57 373.616c25.661-1.223 47.073-20.59 50.914-46.049l.014-.09.567.086-.014.09c-3.881 25.729-25.521 45.3-51.454 46.536l-.027-.573z" fill="#7086A2" fill-rule="nonzero"/><path d="M51.123 364.052c-15.872-1.374-29.924-11.185-36.672-25.607-2.806-5.997-4.229-12.368-4.229-18.937 0-5.199.9-10.324 2.672-15.234l.539.196a44.146 44.146 0 0 0-2.638 15.038c0 6.485 1.404 12.775 4.174 18.694 6.661 14.237 20.533 23.923 36.203 25.28l-.049.57zm11.658-.527l-.1-.565a44.199 44.199 0 0 0 10.965-3.493c15.447-7.237 25.427-22.946 25.427-40.019 0-6.486-1.404-12.776-4.174-18.695l.494-.296.026.053c2.805 5.996 4.228 12.368 4.228 18.938 0 17.295-10.11 33.207-25.757 40.539a44.855 44.855 0 0 1-11.109 3.538zM18.723 294.23l-.471-.328a44.691 44.691 0 0 1 17.727-14.934c5.992-2.806 12.36-4.231 18.926-4.231 13.231 0 25.698 5.791 34.202 15.887l-.439.37c-8.394-9.967-20.701-15.683-33.763-15.683-6.482 0-12.767 1.405-18.683 4.177a44.103 44.103 0 0 0-17.499 14.742z" fill="#7086A2" fill-rule="nonzero"/><path d="M55.361 355.795l-.006-.573a35.432 35.432 0 0 0 11.283-1.978l.189.543a36.03 36.03 0 0 1-11.466 2.008zm-3.504-.131a36.338 36.338 0 0 1-11.287-2.841l.227-.527a35.797 35.797 0 0 0 11.109 2.796l-.049.572zm18.221-3.189l-.239-.521.24-.111a35.683 35.683 0 0 0 9.274-6.274l.391.419a36.242 36.242 0 0 1-9.423 6.375l-.243.112zm-32.657-1.192a36.122 36.122 0 0 1-9.164-7.176l.422-.389a35.546 35.546 0 0 0 9.018 7.062l-.276.503zm44.761-7.812l-.431-.379a35.696 35.696 0 0 0 6.083-9.71l.528.223a36.24 36.24 0 0 1-6.18 9.866zm-56.173-2.056a36.645 36.645 0 0 1-5.448-10.291l.542-.185a36.536 36.536 0 0 0 1.487 3.692 35.965 35.965 0 0 0 3.876 6.438l-.457.346zm63.559-11.104l-.547-.172a35.758 35.758 0 0 0 1.628-11.346l.573-.011a36.282 36.282 0 0 1-1.654 11.529zm-69.974-2.56a36.187 36.187 0 0 1-.797-11.62l.57.054a35.546 35.546 0 0 0 .786 11.435l-.559.131zm70.825-12.403a35.718 35.718 0 0 0-3.141-11.024l-.039-.082.519-.243.038.08a36.28 36.28 0 0 1 3.191 11.203l-.568.066zm-70.565-2.583l-.563-.108a36.446 36.446 0 0 1 3.99-10.939l.501.28a35.865 35.865 0 0 0-3.928 10.767zm65.769-11.572a35.467 35.467 0 0 0-7.357-8.783l.374-.435a36.036 36.036 0 0 1 7.475 8.925l-.492.293zm-60.014-2.122l-.47-.327a36.01 36.01 0 0 1 8.09-8.372l.342.46a35.434 35.434 0 0 0-7.962 8.239zm49.938-8.783a35.75 35.75 0 0 0-10.296-5.023l.165-.549a36.36 36.36 0 0 1 10.461 5.102l-.33.47zm-39.113-1.381l-.296-.491a37.076 37.076 0 0 1 3.41-1.822 36.419 36.419 0 0 1 7.383-2.539l.127.559a35.873 35.873 0 0 0-7.267 2.5 35.928 35.928 0 0 0-3.357 1.793zm25.469-4.481a35.729 35.729 0 0 0-11.447-.412l-.073-.569a36.308 36.308 0 0 1 11.633.419l-.113.562zm172.568 76.082c-16.404 0-31.081-9.791-37.392-24.942l.883-.367c6.162 14.793 20.493 24.352 36.509 24.352 21.8 0 39.537-17.747 39.537-39.562v-.168h.957v.168c0 22.342-18.166 40.519-40.494 40.519zm-40.492-40.435v-.084c0-22.342 18.165-40.518 40.492-40.518 16.366 0 31.031 9.759 37.359 24.863l-.881.37c-6.18-14.747-20.498-24.276-36.478-24.276-21.8 0-39.536 17.748-39.536 39.562l-.956.083z" fill="#7086A2" fill-rule="nonzero"/><path d="M234.492 351.217c-1.72 0-3.454-.144-5.153-.43l.15-.894c1.65.276 3.333.417 5.003.417 4.449 0 8.763-.965 12.825-2.867l.39.818a30.927 30.927 0 0 1-13.215 2.956zm-10.614-1.862c-5.997-2.166-11.114-6.042-14.795-11.209l.739-.526c3.574 5.016 8.541 8.779 14.364 10.882l-.308.853zm28.72-3.948l-.526-.739c5.016-3.573 8.78-8.54 10.886-14.365l.853.309c-2.17 5.999-6.047 11.115-11.213 14.795zm-46.381-12.174a30.988 30.988 0 0 1-2.953-13.223c0-1.714.143-3.441.425-5.133l.894.149a30.39 30.39 0 0 0-.413 4.984c0 4.451.964 8.769 2.865 12.833l-.818.39zm59.028-8.084l-.894-.151c.28-1.658.421-3.349.421-5.029 0-4.451-.964-8.769-2.865-12.833l-.039-.085.821-.385.039.085a30.975 30.975 0 0 1 2.952 13.218 31.356 31.356 0 0 1-.435 5.18zm-59.276-15.43l-.853-.308c2.16-6.002 6.03-11.124 11.19-14.813l.527.739c-5.009 3.58-8.766 8.554-10.864 14.382zm53.125-7.398c-3.581-5.01-8.554-8.766-14.38-10.86l.306-.854c6.001 2.157 11.122 6.025 14.812 11.186l-.738.528zm-37.468-9.785l-.451-.79.035-.016c4.215-1.975 8.659-2.969 13.242-2.969 1.704 0 3.422.142 5.106.422l-.149.895a30.319 30.319 0 0 0-4.958-.409 30.01 30.01 0 0 0-12.825 2.867z" fill="#7086A2" fill-rule="nonzero"/><path d="M234.489 346.741c-3.069 0-6.145-.536-9.117-1.612-6.711-2.432-12.072-7.334-15.099-13.802-6.248-13.352-.474-29.301 12.868-35.552 6.465-3.029 13.72-3.355 20.43-.925 6.711 2.433 12.073 7.334 15.099 13.802 3.027 6.468 3.355 13.728.925 20.444-2.431 6.715-7.329 12.08-13.793 15.109a26.642 26.642 0 0 1-11.313 2.536z" stroke="#7086A2"/><path d="M460.571 88.211l-.021-.018c-18.164-15.265-23.073-41.42-11.672-62.192l.458.251c-11.282 20.554-6.425 46.436 11.549 61.541l-.314.418zm8.061 5.53l.252-.458c20.545 11.307 46.421 6.452 61.525-11.544l.071-.085.4.336-.071.085c-15.264 18.186-41.413 23.092-62.177 11.666zm-13.833-75.472l-.4-.336.035-.043C469.681-.276 495.81-5.194 516.563 6.198l-.251.458c-20.535-11.272-46.39-6.405-61.478 11.57l-.035.043zm81.135 55.394c11.246-20.542 6.377-46.404-11.576-61.492l-.064-.054.336-.4.063.054c18.144 15.248 23.064 41.383 11.699 62.143l-.458-.25z" fill="#7086A2" fill-rule="nonzero"/><path d="M489.148 90.673c-14.462-1.252-27.266-10.192-33.415-23.332-2.556-5.464-3.852-11.27-3.852-17.255 0-4.737.819-9.407 2.435-13.88l.491.178a40.22 40.22 0 0 0-2.404 13.702c0 5.91 1.28 11.64 3.803 17.033 6.07 12.972 18.71 21.798 32.987 23.034l-.045.52zm10.623-.48l-.093-.515a40.284 40.284 0 0 0 9.992-3.182c14.074-6.594 23.168-20.907 23.168-36.465 0-5.909-1.28-11.64-3.803-17.033l.45-.27.023.048c2.556 5.464 3.852 11.27 3.852 17.255 0 15.76-9.211 30.258-23.469 36.938a40.803 40.803 0 0 1-10.12 3.224zm-40.145-63.139l-.429-.299a40.724 40.724 0 0 1 16.153-13.607c5.46-2.559 11.262-3.855 17.244-3.855 12.057 0 23.416 5.276 31.163 14.476l-.399.337c-7.648-9.082-18.862-14.29-30.764-14.29-5.906 0-11.633 1.28-17.022 3.805a40.183 40.183 0 0 0-15.946 13.433z" fill="#7086A2" fill-rule="nonzero"/></g></svg>