<svg width="22" height="22" fill="none" xmlns="http://www.w3.org/2000/svg"><path d="M9.397 4.613c.17 0 .17 0 0 0 .17-.684.341-1.025.341-1.538v-.341c.171-.855.171-1.538 0-1.709v-.17l-.17-.172s0 .171-.171.171c-.342 1.025-.342 2.221 0 3.759zM4.27 16.4c-.341.171-.683.342-.854.513-1.196 1.025-2.05 2.22-2.221 2.733 1.025-.17 2.05-1.195 3.075-3.246.171 0 .171 0 0 0 .171 0 0 0 0 0zm15.72-2.56c-.17-.171-.854-.684-3.246-.684h-.342v.171c1.196.513 2.392.854 3.247.854h.512v-.17s-.17 0-.17-.171zm.684 1.367c-.342.17-.855.341-1.538.341-1.367 0-3.417-.341-5.126-1.196-2.904.342-5.125.683-6.833 1.367-.171 0-.171 0-.342.17-2.05 3.589-3.759 5.297-5.126 5.297-.341 0-.512 0-.683-.17l-.854-.513v-.171C0 19.989 0 19.818 0 19.477c.17-.855 1.196-2.392 3.246-3.588.342-.171.854-.513 1.538-.854.512-.855 1.025-1.88 1.708-3.076.854-1.708 1.367-3.417 1.88-4.954-.684-2.05-1.026-3.246-.342-5.638C8.2.683 8.713 0 9.397 0h.341c.342 0 .684.17 1.025.342 1.196 1.196.684 3.93 0 6.15v.171c.684 1.88 1.709 3.417 2.734 4.442.513.342.854.684 1.538 1.025.854 0 1.537-.17 2.22-.17 2.05 0 3.418.341 3.93 1.195.171.342.171.684.171 1.025-.17.171-.342.684-.683 1.026zM9.568 8.542c-.342 1.196-1.026 2.563-1.709 4.1-.342.684-.683 1.197-1.025 1.88h.342c2.22-.854 4.27-1.367 5.638-1.538-.342-.17-.513-.341-.684-.512-.854-1.025-1.88-2.392-2.563-3.93z" fill="#EA252C"/></svg>