<svg width="21" height="24" fill="none" xmlns="http://www.w3.org/2000/svg"><path d="M4.575 19.28l.32.16c.16.08.32.16.48.16.8 0 1.76-1.04 3.04-3.36 1.36-.48 2.96-.88 4.4-1.12 1.28.8 2.96 1.28 3.68 1.04.16-.08.32-.16.48-.32.16-.24.24-.64.16-1.12 0-.16-.16-.32-.24-.4-.24-.32-.88-.48-1.76-.48-.56 0-1.28.08-2 .16-.32-.16-.64-.4-.88-.64-.72-.72-1.28-1.6-1.6-2.64 0-.08 0-.16.08-.24 0-.08.4-2.48.32-3.28 0-.08 0-.16-.08-.24v-.08c-.16-.4-.4-.64-.8-.64h-.24c-.4 0-.8.24-.88.64-.24.96 0 2.4.48 4.24l-.08.24c-.32.8-.72 1.68-1.04 2.4l-.08.08c-.32.72-.72 1.44-1.04 2l-.32.16s-.56.32-.72.4c-1.12.72-1.84 1.52-2 2.16 0 .24.08.56.32.72zm.56-.48c-.32-.32.24-1.12 1.12-1.76.4-.32.48-.32.72-.48-.8 1.68-1.52 2.56-1.84 2.24zM10.495 8c0 .64-.16 1.12-.24 1.52l-.08.24-.08-.32c-.16-.48-.24-1.28-.24-1.76 0-.88.08-1.04.16-1.04v-.08h.08c.48.08.48.88.4 1.44zm1.04 6.24c.08 0 .08 0 0 0-.96.24-1.84.48-2.72.8.16-.24.24-.48.4-.72.4-.8.64-1.52.88-1.92.4.72.88 1.36 1.44 1.84zm2.72.4c.32 0 .64-.08.88 0 .48 0 .56 0 1.04.16.4.08.48.32.48.4 0 .08 0 .16-.08.24-.16.08-.4.08-.48.08-.48 0-1.04-.24-1.84-.56l-.48-.24.48-.08z" fill="#EA252C"/><path d="M18.975 5.12l-3.2-3.2c-.72-.72-2.16-1.36-3.2-1.36h-9.6c-1.12 0-2 .88-2 2v19.52c0 1.12.88 2 2 2h15.28c1.12 0 2-.88 2-2V8.32c0-1.04-.56-2.48-1.28-3.2zm-4.48 1.2v-3.2l3.2 3.2h-3.2zM2.815 2.56c0-.08.08-.24.24-.24h9.76v5.76h5.76v14c0 .08-.08.24-.24.24H2.975c-.08 0-.24-.08-.24-.24V2.56h.08z" fill="#727C8C"/></svg>