<svg width="34" height="71" fill="#EA252C" xmlns="http://www.w3.org/2000/svg"><path d="M28.497 43.614c-.678.675-1.187 1.434-1.61 2.193a39.267 39.267 0 0 0 1.186-5.653c.085-.337.085-.59.085-.928 1.187.084 2.882-1.097 3.984-3.037.848-1.519 1.441-3.628 1.272-4.894-1.187.253-2.967 1.266-3.985 3.29-.423.76-.762 1.604-.932 2.363.17-2.278.085-4.556-.17-6.75 1.187-.337 2.459-1.94 3.052-3.965.424-1.688.509-3.882 0-5.147-1.102.59-2.543 2.11-3.136 4.303-.17.675-.255 1.35-.34 2.025-.423-2.363-1.101-4.64-1.864-6.75 0 .084.084.084.084.169v-.844c-.084-3.46.509-4.81.933-6.497-.34 1.688-.678 3.375-.678 6.413 0 .337-.085.843-.085 1.18 1.017-.59 1.865-2.446 1.95-4.555 0-1.688-.424-3.713-1.187-4.725-.848.843-1.865 2.615-1.865 4.725 0 1.012.085 2.109.424 2.953-.933-2.278-2.204-4.472-3.56-6.413.847-.843 1.186-2.784.677-4.64-.339-1.603-1.271-3.375-2.119-4.05-.593 1.012-1.102 2.869-.678 4.893.17.76.424 1.435.678 2.026-1.356-1.604-2.797-2.954-4.323-4.22-.085-.168-.255-.252-.34-.421-1.864-2.447-2.034-3.797-2.543-5.316.594 1.435 1.187 2.87 2.798 5.063.17.253.339.675.593.928.509-1.013.17-2.869-.847-4.388C15.103 1.68 13.746.5 12.729.161c-.254 1.097-.084 2.953 1.018 4.556.678.928 1.44 1.772 2.288 2.278l.17.17c.763.59 1.61 1.265 2.289 2.024-.255-.169-.509-.337-.848-.422-1.61-.675-3.39-.422-4.408.085.339.928 1.526 2.025 2.797 2.53 1.526.676 3.222.507 4.154-.168-.254-.169-.508-.253-.763-.422-2.204-1.012-3.475-1.265-4.916-1.519 1.44.17 2.627 0 5.086 1.266.17.085.254.169.424.253a44.736 44.736 0 0 1 3.306 4.556c-.424-.421-.933-.759-1.526-1.097-1.61-.843-3.476-.674-4.578-.253.34 1.013 1.526 2.278 2.798 2.87 1.526.759 3.306.843 4.323.168a34.638 34.638 0 0 1 2.289 5.822c-.34-.76-.933-1.435-1.61-2.025-1.442-1.266-3.307-1.435-4.578-1.266.084 1.097.932 2.7 2.034 3.628 1.356 1.181 3.137 1.603 4.323 1.097l-.678-.675c-1.95-1.856-3.221-2.447-4.493-3.122 1.442.59 2.713.844 4.832 2.953l.51.506c.592 2.11.932 4.22 1.186 6.497-.254-.59-.594-1.097-.933-1.603-1.186-1.518-3.136-2.194-4.408-2.194-.17 1.182.509 2.954 1.441 4.22 1.102 1.433 2.798 2.277 4.07 2.024.084 2.11 0 4.303-.255 6.497-.17-.675-.339-1.35-.678-2.025-.933-1.772-2.713-2.784-3.9-3.037-.339 1.096 0 3.037.763 4.471.848 1.603 2.374 2.785 3.56 2.785-.423 2.362-1.017 4.556-1.864 6.75.085-.929-.085-1.941-.424-2.87-.678-1.94-2.289-3.205-3.476-3.712-.508 1.097-.424 3.038.085 4.556.593 1.772 1.95 3.207 3.221 3.46a33.775 33.775 0 0 1-3.39 6.243c.254-.843.339-1.856.254-2.784-.17-2.025-1.441-3.797-2.459-4.556-.763.928-1.102 2.784-.932 4.387.17 1.941 1.102 3.628 2.289 4.22-1.441 1.94-3.052 3.712-4.832 5.23.424-.675.678-1.518.763-2.447.339-2.025-.424-4.05-1.272-5.062-.932.675-1.78 2.363-2.035 3.966-.254 1.856.17 3.712 1.103 4.64a23.545 23.545 0 0 1-6.358 3.544c.678-.59 1.356-1.519 1.78-2.531.763-1.857.508-4.05 0-5.232-1.017.422-2.289 1.772-2.882 3.291-.763 1.772-.679 3.797 0 4.894-2.459.928-5.002 1.856-7.29 2.447v.843c4.407-1.265 7.035-2.278 9.409-3.459.593 1.181 2.374 2.11 4.408 2.11 1.695 0 3.645-.507 4.578-1.266-.763-1.013-2.543-2.11-4.663-2.11-.763 0-1.61.085-2.288.253a28.187 28.187 0 0 0 5.255-3.712c.848.928 2.798 1.35 4.748.844 1.61-.422 3.39-1.519 4.154-2.531-1.018-.76-2.968-1.35-5.002-.76-.848.253-1.696.59-2.374 1.013 1.696-1.688 3.137-3.544 4.493-5.738v.085l.763-.507c2.882-1.94 4.324-2.025 5.934-2.446-1.61.506-3.221 1.096-5.764 2.784-.34.169-.763.337-1.102.59 1.017.76 3.052.591 4.832-.506 1.44-.843 2.882-2.362 3.39-3.628-1.101-.422-3.136-.422-5.001.675a8.804 8.804 0 0 0-2.628 2.363c1.272-2.11 2.289-4.388 3.137-6.835 1.186.422 3.052-.337 4.493-1.772 1.186-1.265 2.204-3.121 2.373-4.387-1.271-.422-3.221.169-4.747 1.688zM21.63 12.733c-.084-.169-.084-.338-.17-.422-.932-3.206-.677-4.64-.593-6.244.085 1.688.085 3.29.933 6.16.085.337.085.675.17 1.012a1.763 1.763 0 0 1-.34-.506zm1.696 4.134c-2.204-1.266-3.56-1.603-5.002-1.94 1.441.253 2.798.253 5.256 1.687.085.084.17.084.255.169l.254.506c-.255-.169-.509-.253-.763-.422zm4.238 15.272c-1.61-2.278-2.797-3.206-3.984-4.219 1.272.928 2.543 1.434 4.324 4.05 0 .084.084.084.084.169v.675c-.084-.169-.254-.422-.424-.675zm.933 5.99c1.61-3.206 2.797-4.05 3.984-5.315-1.102 1.35-2.289 2.615-3.73 5.484-.17.337-.508.675-.678 1.012 0-.168.085-.421.085-.59.17-.253.254-.422.339-.59zm-.254-9.112c.763-3.544 1.695-4.725 2.628-6.328-.763 1.603-1.526 3.206-2.29 6.328-.084.337-.254.675-.338 1.012 0-.168-.085-.421-.085-.59 0-.085.085-.253.085-.422zM27.14 40.745c-1.187-2.616-2.204-3.713-3.222-4.978 1.102 1.181 2.29 1.94 3.56 4.893 0 .085.085.085.085.17 0 .168-.084.421-.084.59a2.52 2.52 0 0 0-.34-.675zM7.728 67.323c-.17.084-.34.084-.424.168.17-.253.254-.59.424-.843 1.271-2.616 1.526-4.135 1.78-5.822-.254 1.687-.085 3.122-1.526 5.99l-.254.507zm9.07.675c-1.61-.422-3.221-.76-6.273-.76-.339 0-.763-.084-1.102-.084l.509-.253h.508c3.391-.085 4.748.59 6.358 1.097zm-1.526-5.232c0 .085 0 .17-.084.254-.17.084-.255.253-.424.337.085-.253.085-.506.17-.76.593-2.868.423-4.387.338-6.074.255 1.687.679 3.122 0 6.243zm8.732-1.603c-1.695.085-3.306.17-6.188 1.013l-1.018.253c.17-.084.255-.253.34-.338.169-.084.338-.084.508-.168 3.221-1.097 4.663-.76 6.358-.76zm-3.137-3.965v-.928c-.17-2.953-.593-4.388-1.102-5.99.594 1.602 1.357 2.783 1.441 6.074v.422c-.084.084-.254.253-.339.422zm4.24-7.594c-.086-.337-.17-.59-.255-.928-.848-2.784-1.696-4.05-2.543-5.484.932 1.35 2.034 2.278 2.882 5.4.085.168.085.337.17.422-.085.337-.17.506-.255.59zm1.949-2.615c-.255.253-.594.506-.848.759.085-.169.085-.338.17-.506.17-.17.254-.338.424-.507 2.288-2.7 3.73-3.121 5.17-4.05-1.356 1.013-2.797 1.941-4.916 4.303z"/></svg>