<svg width="80" height="80" xmlns="http://www.w3.org/2000/svg" xmlns:xlink="http://www.w3.org/1999/xlink"><defs><circle id="a" cx="39" cy="39" r="38.5"/></defs><g transform="translate(1 1)" fill="none" fill-rule="evenodd"><circle stroke="#B8C0CE" stroke-width="3" fill="#FFF" fill-rule="nonzero" cx="39" cy="39" r="38.5"/><mask id="b" fill="#fff"><use xlink:href="#a"/></mask><path d="M64.495 75.462c0-.084.168.671-3.03-15.022-.505-2.434-1.935-4.112-4.208-5.035-.336-.168.59.168-8.92-2.686l-2.693-1.846v-1.678c4.376-2.266 7.322-6.798 7.322-12.001v-.168c2.272-.42 3.955-2.098 3.955-4.196 0-.84-.252-1.678-.758-2.35v-3.357c0-9.231-7.49-16.7-16.746-16.7-4.628 0-8.92 1.846-12.118 5.203-.42.42-.337 1.091 0 1.427.42.42 1.094.335 1.43 0 2.778-2.938 6.565-4.532 10.604-4.532 8.079 0 14.643 6.546 14.643 14.602v1.846c-.337-.167-.674-.251-1.094-.335-.085-.42.505-3.105-1.936-4.448-10.52-5.455-19.776-1.93-23.226-.168a3.505 3.505 0 0 0-2.02 3.19v1.342c-.336.084-.757.168-1.094.336.084-1.175-.42-4.28 1.43-8.225.253-.503 0-1.09-.504-1.343-.505-.251-1.094 0-1.347.504a16.607 16.607 0 0 0-1.683 7.301v3.357c-.505.671-.757 1.427-.757 2.35 0 2.098 1.683 3.776 3.955 4.196 0 4.951 2.693 9.651 7.237 12.169v1.762l-2.608 1.762c-9.51 2.77-8.752 2.518-9.005 2.686-1.43.587-3.534 1.93-4.207 5.035-3.114 15.693-2.946 15.022-2.946 15.022-.42 2.77 1.094 4.784 4.124 4.784h25.33c.589 0 1.01-.42 1.01-1.007 0-.588-.421-1.008-1.01-1.008H25.532v-9.65c0-.42.084-6.798-2.861-11.498l5.722-1.678c5.302 13.595 16.83 13.763 22.216.084.085 0 .085 0 0 0 .169.084 1.094.335 5.302 1.594-2.945 4.7-2.861 11.078-2.861 11.498v9.65h-4.713c-.589 0-1.01.42-1.01 1.008 0 .587.421 1.007 1.01 1.007h11.95c3.114 0 4.628-2.014 4.208-4.784zm-11.53-44.73c2.441.755 2.441 3.44 0 4.196v-4.196zm-27.18 4.196c-2.441-.755-2.441-3.44 0-4.196v4.196zM23.511 68.58v9.65c-4.46-.167-6.143.336-6.985-.587-.504-.504-.42-1.427-.336-1.846l2.945-14.938c.253-1.343.926-2.266 1.683-2.854 1.852 2.938 2.693 7.218 2.693 10.575zm22.806-14.77c-.926.922-2.61 2.685-3.535 3.608l-1.851-1.343c1.01-.923 3.113-2.77 3.787-3.357l1.599 1.091zm-6.985 1.006l-4.292-3.86v-.923c2.609.923 5.723.923 8.584 0v.923l-4.292 3.86zm-7.826-9.315c-2.357-2.182-3.619-5.287-3.619-8.476V27.29c0-.587.337-1.09.842-1.427 6.48-3.273 14.222-3.524 21.375.168.504.252.841.84.841 1.427v9.819c0 9.903-12.118 15.273-19.44 8.224zm2.44 7.217c.168.084.673.588 3.787 3.357l-1.851 1.427-2.946-3.105-.505-.588 1.515-1.09zm2.356 9.987c-2.272-1.343-4.375-4.112-5.89-7.889h.084l1.43 1.427c3.198 3.189 3.198 3.525 3.871 3.609l.758 1.762-.253 1.091zm1.936.84l.168-1.092h1.852l.168 1.175c-.757.084-1.43.084-2.188-.084zm2.272-3.106h-2.27l-.673-1.594 1.851-1.343 1.852 1.343-.758 1.594zm1.936 2.518l-.169-1.427.758-1.678h.168c.084 0 .168 0 .168-.084.084 0 .084-.084.169-.084l.168-.168 4.544-4.7.42.084c-1.598 4.028-3.786 6.798-6.226 8.057zm19.691 14.686c-.841.923-2.524.42-6.984.587v-9.65c0-.084-.084-6.295 2.693-10.49.757.587 1.43 1.426 1.683 2.853l2.945 14.854c.084.42.084 1.343-.337 1.846z" fill="#B8C0CE" fill-rule="nonzero" mask="url(#b)"/></g></svg>