<svg width="20" height="20" fill="none" xmlns="http://www.w3.org/2000/svg"><path d="M19.222 2.667H14v-2a.632.632 0 0 0-.282-.513.86.86 0 0 0-.639-.141l-12.444 2C.266 2.07 0 2.346 0 2.667v14.667c0 .32.266.595.635.654l12.444 2a.856.856 0 0 0 .64-.141.634.634 0 0 0 .281-.514v-2h5.222c.43 0 .778-.298.778-.666V3.334c0-.368-.348-.667-.778-.667zm-.87 12.871h-2.708V14h2.708v1.539zm0-3h-2.708V11h2.708v1.539zm0-3h-2.708V8h2.708v1.538zm0-3h-2.708V5h2.708v1.538zm-3.685 9h-.978V14h.978v1.539zm0-3h-.978V11h.978v1.539zm0-3h-.978V8h.978v1.538zm0-3h-.978V5h.978v1.538zm-7.211 7.254l-1.181-2.537c-.045-.095-.091-.269-.14-.522h-.017c-.023.12-.076.3-.159.544l-1.185 2.515h-1.84l2.184-3.895L3.12 6H5l.98 2.336c.076.185.145.404.206.657h.019c.038-.152.11-.379.215-.68L7.509 6h1.72L7.174 9.863l2.113 3.928-1.831.001z" fill="#107C10"/></svg>