<svg width="133" height="104" xmlns="http://www.w3.org/2000/svg"><g fill="none"><path d="M64.377 104h-6.772c-1.113 0-1.67-.463-1.67-1.665v-4.164c0-1.018.557-1.573 1.577-1.573h4.36c.65 0 .835-.185.835-.833v-4.811c0-.463.185-.74.65-.648h1.854c.557 0 .743.185.743.74v4.72c0 .647.185.924.927.924h4.174c1.3 0 1.763.463 1.763 1.758v3.887c0 1.202-.557 1.665-1.763 1.665h-6.678zm20.407-2.128H76.25c-.556 0-.742-.093-.742-.74 0-.648.093-1.203 0-1.85-.093-.648.278-.741.835-.741H93.41c1.113 0 1.855.648 1.855 1.573 0 .925-.742 1.665-1.855 1.665-2.876.093-5.751.093-8.627.093zm-31.539 0H35.528c-.279 0-.65 0-.928-.093-.65-.277-1.113-1.017-1.02-1.573.093-.74.649-1.295 1.391-1.48H52.04c1.484 0 1.299-.093 1.299 1.203-.093.648-.093 1.203-.093 1.943zM40.073 88.178c6.771-.093 42.485 0 49.256 0 3.433 0 5.752-1.943 5.937-4.904a86.616 86.616 0 0 0 0-6.94c-.093-2.775-2.319-4.903-5.009-4.903H38.96c-2.969 0-5.102 2.22-5.102 5.181 0 1.666.093 3.424 0 5.09-.464 4.163 2.226 6.476 6.215 6.476zm-.65-12.954h48.979c2.875 0 2.875 0 2.875 2.961 0 1.296-.092 2.59 0 3.794.186 1.665-.556 2.22-2.226 2.22-8.163-.092-16.419 0-24.582 0H40.073c-2.226 0-2.32-.185-2.32-2.405 0-1.573.094-3.146 0-4.72-.092-1.202.465-1.757 1.67-1.85zM64.47 52.278h25.138c3.525 0 5.658 2.128 5.658 5.644v5.644c0 3.33-2.226 5.459-5.658 5.459H39.609c-3.71 0-5.844-2.128-5.844-5.83v-5.458c0-3.239 2.134-5.46 5.473-5.46H64.47zm-.186 12.676h24.86c1.577 0 2.226-.463 2.04-2.128-.092-1.388 0-2.776 0-4.164 0-2.498 0-2.498-2.504-2.498H39.238c-1.206 0-1.67.37-1.577 1.573a43.225 43.225 0 0 1 0 4.904c-.093 1.758.464 2.313 2.226 2.313 8.163-.093 16.327 0 24.397 0zm0-15.267H39.145c-3.34 0-5.473-2.128-5.473-5.367v-5.644c0-3.516 2.134-5.644 5.659-5.644 4.452-.092 8.998 0 13.45 0 11.967 0 24.026.093 35.992 0 3.803 0 6.772 2.128 6.4 6.477-.092 1.665 0 3.423 0 5.089 0 3.053-2.226 5.181-5.287 5.181-8.441-.092-16.975-.092-25.602-.092zm0-3.886H89.05c1.577 0 2.412-.37 2.226-2.128a36.993 36.993 0 0 1 0-4.534c.093-1.666-.556-2.22-2.226-2.128-6.864.092-13.729 0-20.593 0H39.702c-1.484 0-2.134.462-2.04 1.943.092 1.48.185 3.053 0 4.534-.186 1.943.648 2.313 2.41 2.313 8.164-.093 16.142 0 24.212 0z" fill="#828282"/><path d="M77.27 77.907h9.091c1.3 0 2.32.278 2.32 1.85 0 1.481-1.02 1.851-2.32 1.851h-18.18c-1.3 0-2.32-.555-2.32-1.943s1.113-1.758 2.32-1.758h9.09zm.094-19.153h9.09c1.206 0 2.227.278 2.227 1.758s-.928 1.943-2.32 1.943h-18.18c-1.3 0-2.413-.37-2.413-1.85s1.114-1.758 2.412-1.758c3.154-.093 6.122-.093 9.183-.093zm.092-19.153h8.905c1.3 0 2.32.37 2.32 1.85 0 1.574-1.114 1.759-2.412 1.759H68.273c-1.299 0-2.412-.278-2.412-1.758 0-1.573 1.113-1.943 2.505-1.943 3.06.092 6.03.092 9.09.092zM42.207 43.21c.87 0 1.577-.704 1.577-1.573s-.706-1.573-1.577-1.573-1.577.704-1.577 1.573.706 1.573 1.577 1.573zm6.308 0c.87 0 1.577-.704 1.577-1.573s-.706-1.573-1.577-1.573-1.577.704-1.577 1.573.706 1.573 1.577 1.573zm6.307 0c.871 0 1.577-.704 1.577-1.573s-.706-1.573-1.577-1.573c-.87 0-1.577.704-1.577 1.573s.707 1.573 1.577 1.573zM42.3 62.178c.87 0 1.577-.704 1.577-1.573s-.707-1.573-1.577-1.573c-.871 0-1.577.704-1.577 1.573s.706 1.573 1.577 1.573zm6.307 0c.871 0 1.577-.704 1.577-1.573s-.706-1.573-1.577-1.573c-.87 0-1.577.704-1.577 1.573s.706 1.573 1.577 1.573zm6.215 0c.871 0 1.577-.704 1.577-1.573s-.706-1.573-1.577-1.573c-.87 0-1.577.704-1.577 1.573s.707 1.573 1.577 1.573zm-12.43 18.968c.871 0 1.577-.704 1.577-1.573S43.263 78 42.392 78c-.87 0-1.577.704-1.577 1.573s.706 1.573 1.577 1.573zm6.308 0c.871 0 1.577-.704 1.577-1.573S49.571 78 48.7 78c-.87 0-1.577.704-1.577 1.573s.706 1.573 1.577 1.573zm6.215 0c.871 0 1.577-.704 1.577-1.573S55.786 78 54.915 78c-.87 0-1.577.704-1.577 1.573s.706 1.573 1.577 1.573z" fill="#EA252C"/><path d="M127.826 47.374c-3.154-4.35-7.792-7.125-13.822-8.235-.649-3.146-2.783-10.086-8.812-14.342-4.453-3.146-10.018-4.256-16.604-3.146-.743-2.22-2.412-6.014-5.38-9.808C79.032 6.384 71.147 0 57.882 0c-16.51 0-25.044 7.587-29.311 13.879-3.247 4.904-4.546 9.808-5.01 12.306-2.226.555-6.586 1.758-10.853 4.534C6.864 34.419 0 41.637 0 54.683 0 65.972 5.287 72.82 9.647 76.705c4.731 4.07 9.555 5.551 9.74 5.644l.279.092h8.162v-4.349h-7.42c-2.134-.74-16.048-6.291-16.048-23.316 0-8.883 3.525-15.73 10.482-20.171 5.38-3.423 10.853-4.256 10.853-4.256l1.762-.278.186-1.758c0-.092.557-6.107 4.638-12.12C37.57 8.326 46.195 4.348 57.883 4.348c9.184 0 16.605 3.33 21.892 9.993 3.989 4.996 5.287 10.085 5.287 10.27l.464 2.036 2.134-.463c6.215-1.388 11.224-.648 15.027 2.036 6.215 4.44 7.328 12.953 7.328 12.953l.186 1.666 1.67.185c14.285 1.85 15.769 13.416 15.769 18.32 0 14.712-17.161 16.47-18.645 16.563h-7.885v4.348h8.256c.186 0 5.659-.462 11.132-3.146 7.606-3.7 11.595-9.9 11.595-17.765-.093-3.608-.835-9.16-4.267-13.971z" fill="#E0E4EB"/></g></svg>