<svg fill="none" height="75" style="fill: none !important" viewBox="0 0 75 75" width="75" xmlns="http://www.w3.org/2000/svg">
                                <circle cx="37.5" cy="37.5" r="36.5" stroke="#EA252C" stroke-width="2"></circle>
                                <path d="M26.8895 44.8574L25.978 46.2834H37.3755L38.0591 44.8574H26.8895Z" fill="#E8272E"></path>
                                <path d="M29.967 39.4131L29.1691 40.839H40.3386L41.1365 39.4131H29.967Z" fill="#E8272E">
                                </path>
                                <path d="M28.3712 42.1353L27.5732 43.5612H38.8571L39.655 42.1353H28.3712Z" fill="#E8272E"></path>
                                <path d="M22.2163 53.0244L21.4183 54.3205H50.938L51.3937 53.0244H22.2163Z" fill="#E8272E"></path>
                                <path d="M21.9885 55.7466L22.6721 57.0427H50.1401L50.5959 55.7466H21.9885Z" fill="#E8272E"></path>
                                <path d="M25.2937 47.5801L24.4957 49.006H52.5338L52.9895 47.5801H25.2937Z" fill="#E8272E"></path>
                                <path d="M31.4486 36.6909L30.6506 38.1168H41.8202L42.5038 36.6909H31.4486Z" fill="#E8272E"></path>
                                <path d="M23.6987 50.3022L22.9008 51.5984H51.7368L52.1925 50.3022H23.6987Z" fill="#E8272E"></path>
                                <path d="M37.6034 25.8018L36.9198 27.2277H47.7479L48.5458 25.8018H37.6034Z" fill="#E8272E"></path>
                                <path d="M23.1286 17.7642L22.6729 19.0603H52.1925L52.9905 17.7642H23.1286Z" fill="#E8272E"></path>
                                <path d="M22.2164 20.4868L21.7606 21.7829H50.7102L51.5081 20.4868H22.2164Z" fill="#E8272E"></path>
                                <path d="M32.9301 33.9692L32.2465 35.3952H43.3025L44.1005 33.9692H32.9301Z" fill="#E8272E"></path>
                                <path d="M24.0401 15.0425L23.5844 16.3386H52.4204L51.7368 15.0425H24.0401Z" fill="#E8272E"></path>
                                <path d="M34.5259 31.2461L33.728 32.672H44.784L45.5819 31.2461H34.5259Z" fill="#E8272E">
                                </path>
                                <path d="M36.1219 28.5239L35.324 29.9499H46.2656L47.0635 28.5239H36.1219Z" fill="#E8272E"></path>
                                <path d="M21.1904 23.0801L20.8483 24.506H49.2286L50.0265 23.0801H21.1904Z" fill="#E8272E"></path>
                            </svg>