<svg fill="none" height="42" viewBox="0 0 56 42" width="56" xmlns="http://www.w3.org/2000/svg">
                                <path d="M2.26471 26.2754C2.26471 26.4783 2.36765 26.7826 2.57353 26.9855C2.88235 27.2898 3.60294 27.2898 3.91176 26.9855C4.11765 26.7826 4.22059 26.5797 4.22059 26.2754C4.22059 26.0725 4.11765 25.7681 3.91176 25.5652C3.70588 25.4638 3.5 25.3623 3.19118 25.3623C2.88235 25.3623 2.67647 25.4638 2.47059 25.6667C2.36765 25.7681 2.26471 26.0725 2.26471 26.2754Z" fill="#EA252C"></path>
                                <path d="M2.26471 33.1739C2.26471 33.6812 2.67647 34.0869 3.19118 34.0869C3.70588 34.0869 4.11765 33.6812 4.11765 33.1739V3.24638L4.73529 3.85507C5.14706 4.26087 5.76471 4.26087 6.07353 3.85507C6.27941 3.65217 6.38235 3.44927 6.38235 3.14493C6.38235 2.94203 6.27941 2.63768 6.07353 2.43478L3.91176 0.304348C3.5 -0.101449 2.88235 -0.101449 2.57353 0.304348L0.308824 2.53623C-0.102941 2.94203 -0.102941 3.55072 0.308824 3.85507C0.720588 4.26087 1.33824 4.26087 1.64706 3.85507L2.26471 3.24638V33.1739Z" fill="#EA252C"></path>
                                <path d="M55.6912 38.1449L53.4265 35.913C53.0147 35.5072 52.3971 35.5072 52.0882 35.913C51.8824 36.1159 51.7794 36.3188 51.7794 36.6232C51.7794 36.8261 51.8824 37.1304 52.0882 37.3333L52.7059 37.942H47.9706V21.913C47.9706 21.4058 47.5588 21 47.0441 21C46.5294 21 46.1176 21.4058 46.1176 21.913V37.8406H35.4118V30.4348C35.4118 29.9275 35 29.5217 34.4853 29.5217C33.9706 29.5217 33.5588 29.9275 33.5588 30.4348V37.8406H23.6765V19.5797C23.6765 19.0725 23.2647 18.6667 22.75 18.6667C22.2353 18.6667 21.8235 19.0725 21.8235 19.5797V37.8406H12.3529V30.6377C12.3529 30.1304 11.9412 29.7246 11.4265 29.7246C10.9118 29.7246 10.5 30.1304 10.5 30.6377V37.8406H4.22059V31.1449C4.22059 30.6377 3.80882 30.2319 3.29412 30.2319C2.77941 30.2319 2.36765 30.6377 2.36765 31.1449V38.7536C2.36765 39.2609 2.77941 39.6667 3.29412 39.6667H52.7059L52.0882 40.2754C51.8824 40.4783 51.7794 40.6812 51.7794 40.9855C51.7794 41.1884 51.8824 41.4927 52.0882 41.6956C52.5 42.1014 53.1176 42.1014 53.4265 41.6956L55.6912 39.4638C55.8971 39.2609 56 39.058 56 38.7536C56 38.5507 55.8971 38.3478 55.6912 38.1449Z" fill="#EA252C"></path>
                                <path d="M11.2206 27.5942C13.3824 27.5942 15.1324 25.8696 15.1324 23.7391C15.1324 23.1304 14.9265 22.4203 14.6176 21.8116L14.5147 21.7101L20.4853 15.8261L20.5882 15.9275C21.8235 16.6377 23.4706 16.6377 24.7059 15.8261L24.8088 15.7246L30.8824 21.7101L30.7794 21.8116C30.4706 22.4203 30.2647 23.029 30.2647 23.7391C30.2647 25.8696 32.0147 27.5942 34.1765 27.5942C36.3382 27.5942 38.0882 25.8696 38.0882 23.7391C38.0882 23.1304 37.8824 22.4203 37.5735 21.913L37.4706 21.8116L46.5294 12.8841L46.6324 12.9855C47.25 13.3913 47.9706 13.5942 48.6912 13.5942C50.8529 13.5942 52.6029 11.8696 52.6029 9.73913C52.6029 7.60869 50.8529 5.88406 48.6912 5.88406C46.5294 5.88406 44.7794 7.60869 44.7794 9.73913C44.7794 10.3478 44.8824 10.9565 45.1912 11.4638L45.2941 11.5652L36.1324 20.5942L36.3382 20.2899C35.2059 19.6812 33.6618 19.6812 32.5294 20.2899H32.4265L26.25 14.2029L26.3529 14.1014C26.5588 13.5942 26.6618 13.087 26.6618 12.4783C26.6618 10.3478 24.9118 8.62319 22.75 8.62319C20.5882 8.62319 18.8382 10.3478 18.8382 12.4783C18.8382 13.087 19.0441 13.7971 19.3529 14.3043L19.4559 14.4058L13.4853 20.2899H13.1765C12.5588 19.9855 11.9412 19.7826 11.3235 19.7826C9.16177 19.7826 7.41176 21.5072 7.41176 23.6377C7.30882 25.7681 9.05882 27.5942 11.2206 27.5942ZM49.1029 7.50724C50.2353 7.50724 51.1618 8.42029 51.1618 9.53623C51.1618 10.6522 50.2353 11.5652 49.1029 11.5652C47.9706 11.5652 47.0441 10.6522 47.0441 9.53623C47.0441 8.42029 47.9706 7.50724 49.1029 7.50724ZM34.4853 21.7101C35.6176 21.7101 36.5441 22.6232 36.5441 23.7391C36.5441 24.8551 35.6176 25.7681 34.4853 25.7681C33.3529 25.7681 32.4265 24.8551 32.4265 23.7391C32.4265 22.6232 33.3529 21.7101 34.4853 21.7101ZM22.6471 10.4493C23.7794 10.4493 24.7059 11.3623 24.7059 12.4783C24.7059 13.5942 23.7794 14.5072 22.6471 14.5072C21.5147 14.5072 20.5882 13.5942 20.5882 12.4783C20.6912 11.3623 21.6176 10.4493 22.6471 10.4493ZM11.2206 21.7101C11.7353 21.7101 12.25 21.913 12.6618 22.3188C13.0735 22.7246 13.2794 23.2319 13.2794 23.7391C13.2794 24.8551 12.3529 25.7681 11.2206 25.7681C10.0882 25.7681 9.16176 24.8551 9.16176 23.7391C9.26471 22.6232 10.0882 21.7101 11.2206 21.7101Z" fill="#EA252C"></path>
                            </svg>